<?xml version="1.0" standalone="no"?>
<!DOCTYPE svg PUBLIC "-//W3C//DTD SVG 1.1//EN" "http://www.w3.org/Graphics/SVG/1.1/DTD/svg11.dtd" >
<svg xmlns="http://www.w3.org/2000/svg">
<metadata></metadata>
<defs>
<font id="loveloblack" horiz-adv-x="671" >
<font-face units-per-em="1000" ascent="750" descent="-250" />
<missing-glyph horiz-adv-x="284" />
<glyph unicode=" "  horiz-adv-x="284" />
<glyph unicode="&#x09;" horiz-adv-x="284" />
<glyph unicode="&#xa0;" horiz-adv-x="284" />
<glyph unicode="!" horiz-adv-x="276" d="M223 73q0 -50 -41 -70.5t-82 0t-41 70.5t41 70.5t82 0t41 -70.5zM64 450v265h154v-265q-14 -184 -20 -236h-113q-4 31 -7.5 71t-7.5 89t-6 76z" />
<glyph unicode="&#x22;" horiz-adv-x="390" d="M36 494v220h130l-15 -220h-115zM236 494v220h130l-15 -220h-115z" />
<glyph unicode="$" horiz-adv-x="529" d="M47 46l18 150q54 -38 110 -49t94 -8q32 2 54.5 23t19.5 49q-2 28 -21 44.5t-53 28.5q-99 36 -155.5 86t-56.5 132q0 75 40.5 132t108.5 77v96h127v-90q46 -7 104 -27l-18 -138q-81 33 -146 30q-36 -2 -54.5 -25t-16.5 -55q3 -27 23.5 -43.5t56.5 -28.5q207 -76 207 -219 q0 -76 -41.5 -132t-114.5 -76v-97h-127v91q-84 10 -159 49z" />
<glyph unicode="'" horiz-adv-x="200" d="M36 494v220h130l-15 -220h-115z" />
<glyph unicode="," horiz-adv-x="240" d="M57 110h148l-78 -226h-112z" />
<glyph unicode="-" horiz-adv-x="454" d="M38 275v133h364v-133h-364z" />
<glyph unicode="." horiz-adv-x="244" d="M110 154q52 0 72.5 -40t-0.5 -80.5t-72 -40.5q-38 0 -60 25t-22 55.5t22 55.5t60 25z" />
<glyph unicode="/" horiz-adv-x="422" d="M148 0h-148l281 715h148z" />
<glyph unicode="0" horiz-adv-x="597" d="M297 -10q-85 0 -141.5 51t-80 131t-23.5 186t23.5 186t80 130.5t141.5 50.5q86 0 142.5 -50.5t80 -130.5t23.5 -186t-23.5 -186t-80 -131t-142.5 -51zM297 125q108 0 108 233t-108 233q-106 0 -106 -233t106 -233z" />
<glyph unicode="1" horiz-adv-x="370" d="M30 571v143h259v-714h-142v571h-117z" />
<glyph unicode="2" horiz-adv-x="521" d="M273 424q17 24 26 45t9 29l1 9q0 30 -21 50t-53 22q-42 3 -92.5 -17.5t-72.5 -39.5l-35 138q42 30 101 48.5t111 16.5q77 -4 130 -38t74 -84.5t10.5 -114.5t-54.5 -125l-141 -218h212v-145h-472z" />
<glyph unicode="3" horiz-adv-x="500" d="M162 292l-3 146h69q33 0 54 18.5t20 48.5q-1 37 -29.5 57t-67.5 21.5t-77 -4.5t-60 -18l-22 135q84 33 188 29q96 -6 157.5 -67t63.5 -153q2 -89 -76 -140q40 -23 61 -65t22 -87q2 -93 -53.5 -153.5t-157.5 -65.5q-52 -3 -119.5 7t-102.5 25l16 145q25 -13 68 -22 t88.5 -11t77.5 16.5t31 58.5q-1 31 -24 55t-55 24h-69z" />
<glyph unicode="4" horiz-adv-x="540" d="M437 1h-143v179h-298l203 535h150l-146 -392h91v121l143 96v-217h78v-143h-78v-179z" />
<glyph unicode="5" horiz-adv-x="525" d="M211 453q140 -12 206 -67.5t66 -175.5q0 -91 -58 -151t-157 -65q-116 -6 -228 32l13 142q64 -22 115 -30t82 -4.5t51.5 16t28.5 28.5t8 35q0 63 -54 88.5t-217 37.5v376h364v-137h-220v-125z" />
<glyph unicode="6" horiz-adv-x="507" d="M258 412q95 1 151.5 -53.5t56.5 -153.5q0 -91 -58.5 -152.5t-158.5 -60.5q-63 1 -111 30t-71 74.5t-27 103t22 115.5l166 399h155zM325 206q2 48 -36 68t-76 1t-38 -67q0 -34 23 -54t50.5 -20.5t51 19t25.5 53.5z" />
<glyph unicode="7" horiz-adv-x="488" d="M61 0l243 579h-288v135h491l-292 -714h-154z" />
<glyph unicode="8" horiz-adv-x="522" d="M470 505q0 -96 -68 -147q69 -51 69 -147q0 -104 -60.5 -161.5t-154.5 -57.5q-95 0 -156.5 57.5t-61.5 161.5q0 97 68 147q-68 52 -68 147q0 102 64 160t151 58t152 -58t65 -160zM254 429q32 0 54.5 20t22.5 55q0 36 -22.5 55.5t-54.5 19.5t-55 -19.5t-23 -55.5 q0 -35 23 -55t55 -20zM254 134q33 0 55.5 22.5t22.5 54.5q0 33 -22 55t-56 22t-56.5 -22.5t-22.5 -54.5t23 -54.5t56 -22.5z" />
<glyph unicode="9" horiz-adv-x="512" d="M247 301q-94 -1 -150.5 54t-56.5 153q0 92 58.5 153.5t158.5 59.5q63 -1 111 -30t71 -74.5t27 -103t-22 -115.5l-167 -398h-154zM184 507q-2 -45 34 -64.5t72.5 -1.5t36.5 63q0 33 -22 52t-48 19.5t-49 -17.5t-24 -51z" />
<glyph unicode=":" horiz-adv-x="231" d="M110 154q52 0 72.5 -40t-0.5 -80.5t-72 -40.5q-38 0 -60 25t-22 55.5t22 55.5t60 25zM110 446q52 0 72.5 -40t-0.5 -80.5t-72 -40.5q-38 0 -60 25t-22 55.5t22 55.5t60 25z" />
<glyph unicode=";" horiz-adv-x="231" d="M110 446q52 0 72.5 -40t-0.5 -80.5t-72 -40.5q-38 0 -60 25t-22 55.5t22 55.5t60 25zM46 104h148l-78 -226h-112z" />
<glyph unicode="?" horiz-adv-x="480" d="M302 206h-142q3 56 41 122.5t73.5 116t35.5 65.5q5 51 -33 73.5t-78 1t-40 -74.5h-137q-4 80 38.5 136.5t106 71t128 4.5t110 -62t46.5 -130q0 -46 -21 -88.5t-47.5 -71t-51 -72.5t-29.5 -92zM316 69q0 38 -26 60t-57.5 22t-57.5 -22t-26 -60q0 -50 41.5 -70.5t83.5 0 t42 70.5z" />
<glyph unicode="A" horiz-adv-x="653" d="M16 0l301 741h15l301 -741h-161l-29 77h-237l-28 -77h-162zM258 211h132l-65 186z" />
<glyph unicode="B" horiz-adv-x="621" d="M224 573v-144h86h41q30 0 48 21t18 51q0 31 -18 51.5t-48 20.5h-127zM80 0v716h283q94 0 149.5 -60.5t53.5 -156.5q-4 -98 -66 -141q35 -24 54.5 -62t19.5 -81q0 -90 -62 -152.5t-149 -62.5h-283zM224 286v-143h86h41q31 0 51.5 21t20.5 51t-20.5 50.5t-51.5 20.5h-127z " />
<glyph unicode="C" horiz-adv-x="602" d="M535 549q-60 31 -124 31q-58 0 -104 -24t-69.5 -62.5t-34.5 -85t0 -93t34.5 -85t69.5 -62.5t104 -24q76 0 138 32l19 -148q-73 -30 -157 -30q-100 0 -178 40t-118.5 104t-59.5 141.5t0 155t59.5 141.5t118.5 104t178 40q78 0 141 -28z" />
<glyph unicode="D" horiz-adv-x="704" d="M293 715q86 0 155.5 -30.5t112.5 -81t66 -114.5t23 -131.5t-23 -131.5t-66 -114.5t-112.5 -81t-155.5 -30.5h-213v715h213zM293 572h-70v-429h70q66 0 115 32t71 79.5t22 103t-22 103t-71 79.5t-115 32z" />
<glyph unicode="E" horiz-adv-x="504" d="M450 0h-370v715h358v-143h-215v-143h188v-143h-188v-143h227v-143z" />
<glyph unicode="F" horiz-adv-x="475" d="M437 572h-214v-143h182v-143h-182v-286h-143v715h357v-143z" />
<glyph unicode="G" horiz-adv-x="673" d="M596 44q-85 -48 -185 -48q-76 0 -140.5 24t-107 65.5t-72.5 94.5t-37.5 112.5t-2 119t34 114t71 97t108.5 69t146 29.5q74 3 167 -26l-17 -145q-66 28 -150 26q-59 -2 -105 -27t-69.5 -64t-34 -85t1.5 -92t36 -84t69 -61.5t102 -23.5q14 0 40 4v215h145v-314z" />
<glyph unicode="H" horiz-adv-x="661" d="M580 0h-143v286h-214v-286h-143v715h143v-286h214v286h143v-715z" />
<glyph unicode="I" horiz-adv-x="304" d="M223 0h-143v715h143v-715z" />
<glyph unicode="J" horiz-adv-x="465" d="M32 0v143h137q31 0 51.5 21t20.5 51v500h145v-500q0 -215 -213 -215h-141z" />
<glyph unicode="K" horiz-adv-x="604" d="M80 0v715h143v-285l180 285h167l-232 -353l252 -362h-177l-190 280v-280h-143z" />
<glyph unicode="L" horiz-adv-x="493" d="M80 715h143v-572h227v-143h-370v715z" />
<glyph unicode="M" horiz-adv-x="816" d="M408 412l282 314h45v-726h-145l1 399l-183 -192l-183 192v-399h-145v726h46z" />
<glyph unicode="N" horiz-adv-x="704" d="M223 389v-389h-143v730h38l361 -420v404h144v-729h-38z" />
<glyph unicode="O" horiz-adv-x="847" d="M424 -10q-89 0 -161 31.5t-116 83.5t-68 118t-24 135.5t24 135.5t68 118t116 83.5t161 31.5t161 -31.5t116 -83.5t68 -118t24 -135.5t-24 -135.5t-68 -118t-116 -83.5t-161 -31.5zM424 138q59 0 105 24.5t70 63.5t35 86t0 94t-35 86t-70 63.5t-105 24.5 q-68 0 -118.5 -32.5t-73 -82t-22.5 -106.5t22.5 -106.5t73 -82t118.5 -32.5z" />
<glyph unicode="P" horiz-adv-x="603" d="M223 0h-143v714h281q66 0 115 -32.5t71 -81.5t21.5 -106.5t-22 -106.5t-70.5 -81.5t-115 -32.5h-138v-273zM223 412h126q34 0 53.5 25t19.5 55t-19.5 55t-53.5 25h-126v-160z" />
<glyph unicode="Q" horiz-adv-x="839" d="M376 303h169l50 -64q27 48 29 106.5t-18.5 109t-71 85t-119.5 34.5q-67 0 -116 -32t-71 -80t-22 -104t22 -104t71 -80t116 -32q45 0 81 14zM592 37q-76 -39 -177 -39q-87 0 -157 31t-113.5 81.5t-66.5 115.5t-23 132.5t23 132.5t66.5 115.5t113.5 81.5t157 31 q86 0 156 -30.5t113 -80.5t67.5 -114.5t25 -130.5t-21.5 -131.5t-64 -115.5l94 -120h-158z" />
<glyph unicode="R" horiz-adv-x="613" d="M598 0h-162l-144 273h-69v-273h-143v715h282q61 0 108 -27t71 -68.5t30 -92t-7 -96.5t-47 -83.5t-85 -52.5zM223 572v-160h126q34 0 53.5 25t19.5 55t-19.5 55t-53.5 25h-126z" />
<glyph unicode="S" horiz-adv-x="529" d="M47 46l18 150q54 -38 110 -49t94 -8q32 2 54.5 23t19.5 49q-2 28 -21 44.5t-53 28.5q-99 36 -155.5 86t-56.5 132q0 90 56.5 152t145.5 66q79 4 178 -30l-18 -138q-81 33 -146 30q-36 -2 -54.5 -25t-16.5 -55q3 -27 23.5 -43.5t56.5 -28.5q207 -76 207 -219 q0 -91 -58.5 -151.5t-157.5 -65.5q-109 -8 -226 52z" />
<glyph unicode="T" horiz-adv-x="547" d="M341 0h-143v572h-178v142h499v-142h-178v-572z" />
<glyph unicode="U" d="M593 249q0 -61 -22 -111t-58.5 -80.5t-83 -47t-95 -16.5t-95 16.5t-83 47t-58.5 80.5t-22 111v466h143v-465q0 -43 24 -72t58 -36t68 0t58 36t24 72v465h142v-466z" />
<glyph unicode="V" horiz-adv-x="637" d="M334 -15h-32l-296 730h165l95 -238l52 -148l51 143l96 243h165z" />
<glyph unicode="W" horiz-adv-x="910" d="M324 -15h-25l-293 730h161l144 -365l140 358h7l140 -358l144 365h161l-292 -727h-26l-131 317z" />
<glyph unicode="X" horiz-adv-x="631" d="M6 0l225 381l-194 335h173l108 -199l107 199h169l-195 -335l225 -381h-169l-137 245l-138 -245h-174z" />
<glyph unicode="Y" horiz-adv-x="649" d="M255 0v322l-249 393h174l146 -246l146 246h175l-250 -393v-322h-142z" />
<glyph unicode="Z" horiz-adv-x="535" d="M501 0h-479q29 64 81.5 181.5t95.5 213.5t81 181h-220v139h433q-86 -191 -258 -571h266v-144z" />
<glyph unicode="`" horiz-adv-x="351" d="M60 714h186l53 -141h-138z" />
<glyph unicode="a" horiz-adv-x="653" d="M16 0l301 741h15l301 -741h-161l-29 77h-237l-28 -77h-162zM258 211h132l-65 186z" />
<glyph unicode="b" horiz-adv-x="621" d="M224 573v-144h86h41q30 0 48 21t18 51q0 31 -18 51.5t-48 20.5h-127zM80 0v716h283q94 0 149.5 -60.5t53.5 -156.5q-4 -98 -66 -141q35 -24 54.5 -62t19.5 -81q0 -90 -62 -152.5t-149 -62.5h-283zM224 286v-143h86h41q31 0 51.5 21t20.5 51t-20.5 50.5t-51.5 20.5h-127z " />
<glyph unicode="c" horiz-adv-x="602" d="M535 549q-60 31 -124 31q-58 0 -104 -24t-69.5 -62.5t-34.5 -85t0 -93t34.5 -85t69.5 -62.5t104 -24q76 0 138 32l19 -148q-73 -30 -157 -30q-100 0 -178 40t-118.5 104t-59.5 141.5t0 155t59.5 141.5t118.5 104t178 40q78 0 141 -28z" />
<glyph unicode="d" horiz-adv-x="704" d="M293 715q86 0 155.5 -30.5t112.5 -81t66 -114.5t23 -131.5t-23 -131.5t-66 -114.5t-112.5 -81t-155.5 -30.5h-213v715h213zM293 572h-70v-429h70q66 0 115 32t71 79.5t22 103t-22 103t-71 79.5t-115 32z" />
<glyph unicode="e" horiz-adv-x="504" d="M450 0h-370v715h358v-143h-215v-143h188v-143h-188v-143h227v-143z" />
<glyph unicode="f" horiz-adv-x="475" d="M437 572h-214v-143h182v-143h-182v-286h-143v715h357v-143z" />
<glyph unicode="g" horiz-adv-x="673" d="M596 44q-85 -48 -185 -48q-76 0 -140.5 24t-107 65.5t-72.5 94.5t-37.5 112.5t-2 119t34 114t71 97t108.5 69t146 29.5q74 3 167 -26l-17 -145q-66 28 -150 26q-59 -2 -105 -27t-69.5 -64t-34 -85t1.5 -92t36 -84t69 -61.5t102 -23.5q14 0 40 4v215h145v-314z" />
<glyph unicode="h" horiz-adv-x="661" d="M580 0h-143v286h-214v-286h-143v715h143v-286h214v286h143v-715z" />
<glyph unicode="i" horiz-adv-x="304" d="M223 0h-143v715h143v-715z" />
<glyph unicode="j" horiz-adv-x="465" d="M32 0v143h137q31 0 52 21t21 51v500h142v-500q0 -89 -61.5 -152t-149.5 -63h-141z" />
<glyph unicode="k" horiz-adv-x="604" d="M80 0v715h143v-285l180 285h167l-232 -353l252 -362h-177l-190 280v-280h-143z" />
<glyph unicode="l" horiz-adv-x="493" d="M80 715h143v-572h227v-143h-370v715z" />
<glyph unicode="m" horiz-adv-x="816" d="M408 412l282 314h45v-726h-145l1 399l-183 -192l-183 192v-399h-145v726h46z" />
<glyph unicode="n" horiz-adv-x="704" d="M223 389v-389h-143v730h38l361 -420v404h144v-729h-38z" />
<glyph unicode="o" horiz-adv-x="847" d="M424 -10q-89 0 -161 31.5t-116 83.5t-68 118t-24 135.5t24 135.5t68 118t116 83.5t161 31.5t161 -31.5t116 -83.5t68 -118t24 -135.5t-24 -135.5t-68 -118t-116 -83.5t-161 -31.5zM424 138q59 0 105 24.5t70 63.5t35 86t0 94t-35 86t-70 63.5t-105 24.5 q-68 0 -118.5 -32.5t-73 -82t-22.5 -106.5t22.5 -106.5t73 -82t118.5 -32.5z" />
<glyph unicode="p" horiz-adv-x="603" d="M223 0h-143v714h281q66 0 115 -32.5t71 -81.5t21.5 -106.5t-22 -106.5t-70.5 -81.5t-115 -32.5h-138v-273zM223 412h126q34 0 53.5 25t19.5 55t-19.5 55t-53.5 25h-126v-160z" />
<glyph unicode="q" horiz-adv-x="839" d="M376 303h169l50 -64q27 48 29 106.5t-18.5 109t-71 85t-119.5 34.5q-67 0 -116 -32t-71 -80t-22 -104t22 -104t71 -80t116 -32q45 0 81 14zM592 37q-76 -39 -177 -39q-87 0 -157 31t-113.5 81.5t-66.5 115.5t-23 132.5t23 132.5t66.5 115.5t113.5 81.5t157 31 q86 0 156 -30.5t113 -80.5t67.5 -114.5t25 -130.5t-21.5 -131.5t-64 -115.5l94 -120h-158z" />
<glyph unicode="r" horiz-adv-x="613" d="M598 0h-162l-144 273h-69v-273h-143v715h282q61 0 108 -27t71 -68.5t30 -92t-7 -96.5t-47 -83.5t-85 -52.5zM223 572v-160h126q34 0 53.5 25t19.5 55t-19.5 55t-53.5 25h-126z" />
<glyph unicode="s" horiz-adv-x="529" d="M47 46l18 150q54 -38 110 -49t94 -8q32 2 54.5 23t19.5 49q-2 28 -21 44.5t-53 28.5q-99 36 -155.5 86t-56.5 132q0 90 56.5 152t145.5 66q79 4 178 -30l-18 -138q-81 33 -146 30q-36 -2 -54.5 -25t-16.5 -55q3 -27 23.5 -43.5t56.5 -28.5q207 -76 207 -219 q0 -91 -58.5 -151.5t-157.5 -65.5q-109 -8 -226 52z" />
<glyph unicode="t" horiz-adv-x="547" d="M341 0h-143v572h-178v142h499v-142h-178v-572z" />
<glyph unicode="u" d="M593 249q0 -61 -22 -111t-58.5 -80.5t-83 -47t-95 -16.5t-95 16.5t-83 47t-58.5 80.5t-22 111v466h143v-465q0 -43 24 -72t58 -36t68 0t58 36t24 72v465h142v-466z" />
<glyph unicode="v" horiz-adv-x="637" d="M334 -15h-32l-296 730h165l95 -238l52 -148l51 143l96 243h165z" />
<glyph unicode="w" horiz-adv-x="910" d="M324 -15h-25l-293 730h161l144 -365l140 358h7l140 -358l144 365h161l-292 -727h-26l-131 317z" />
<glyph unicode="x" horiz-adv-x="631" d="M6 0l225 381l-194 335h173l108 -199l107 199h169l-195 -335l225 -381h-169l-137 245l-138 -245h-174z" />
<glyph unicode="y" horiz-adv-x="649" d="M255 0v322l-249 393h174l146 -246l146 246h175l-250 -393v-322h-142z" />
<glyph unicode="z" horiz-adv-x="535" d="M501 0h-479q29 64 81.5 181.5t95.5 213.5t81 181h-220v139h433q-86 -191 -258 -571h266v-144z" />
<glyph unicode="&#xa1;" horiz-adv-x="276" d="M52 427q0 50 41 70.5t82 0t41 -70.5t-41 -70.5t-82 0t-41 70.5zM211 50v-265h-154v265q14 184 20 236h113q4 -31 7.5 -71t7.5 -89t6 -76z" />
<glyph unicode="&#xa5;" horiz-adv-x="649" d="M397 0h-142v162h-138v101h138v45h-138v101h83l-194 306h174l146 -246l146 246h175l-195 -306h73v-101h-128v-45h128v-101h-128v-162z" />
<glyph unicode="&#xa8;" horiz-adv-x="510" d="M53 634q0 35 24 58.5t57 23.5q35 0 58.5 -23.5t23.5 -58.5q0 -34 -23.5 -57.5t-58.5 -23.5q-34 1 -57.5 24t-23.5 57zM300 634q0 35 24 58.5t57 23.5q35 0 58.5 -23.5t23.5 -58.5q0 -34 -23.5 -57t-58.5 -24q-33 0 -57 23.5t-24 57.5z" />
<glyph unicode="&#xaf;" horiz-adv-x="367" d="M50 583v131h264v-131h-264z" />
<glyph unicode="&#xb4;" horiz-adv-x="319" d="M100 719h183l-101 -141h-135z" />
<glyph unicode="&#xb7;" horiz-adv-x="244" d="M110 424q52 0 72.5 -40t-0.5 -80.5t-72 -40.5q-38 0 -60 25t-22 55.5t22 55.5t60 25z" />
<glyph unicode="&#xb8;" horiz-adv-x="394" d="M28 -246l55 83q50 -35 92 -26q15 2 26 10t11 21q-1 20 -19 31t-40.5 11t-43.5 -3l24 130h95l-8 -59q48 -3 78 -35.5t29.5 -75t-29.5 -85.5q-39 -55 -116 -57t-154 55z" />
<glyph unicode="&#xbf;" horiz-adv-x="480" d="M156 309h142q-3 -56 -41 -122.5t-73.5 -116t-35.5 -65.5q-5 -51 33 -73.5t78 -1t40 74.5h137q4 -80 -38.5 -136.5t-106 -71t-128 -4.5t-110 62t-46.5 130q0 46 21 88.5t47.5 71t51 72.5t29.5 92zM142 446q0 50 42 70.5t83.5 0t41.5 -70.5q0 -38 -26 -60t-57.5 -22 t-57.5 22t-26 60z" />
<glyph unicode="&#xc0;" horiz-adv-x="653" d="M304 724h41l288 -724h-161l-29 77h-237l-28 -77h-162zM258 211h132l-65 191zM161 906h186l53 -141h-138z" />
<glyph unicode="&#xc1;" horiz-adv-x="653" d="M304 724h41l288 -724h-161l-29 77h-237l-28 -77h-162zM258 211h132l-65 191zM296 906h186l-101 -141h-138z" />
<glyph unicode="&#xc2;" horiz-adv-x="653" d="M304 724h41l288 -724h-161l-29 77h-237l-28 -77h-162zM258 211h132l-65 191zM511 759h-152l-37 47l-36 -47h-151l141 140h92z" />
<glyph unicode="&#xc3;" horiz-adv-x="653" d="M304 724h41l288 -724h-161l-29 77h-237l-28 -77h-162zM258 211h132l-65 191zM240 768l-87 38q15 50 44 78t70 27q20 -1 44 -11.5t38.5 -19.5t31 -5t28.5 28l86 -39q-14 -50 -44 -77.5t-71 -26.5q-20 1 -43.5 11.5t-38.5 19.5t-31 5t-27 -28z" />
<glyph unicode="&#xc4;" horiz-adv-x="653" d="M304 724h41l288 -724h-161l-29 77h-237l-28 -77h-162zM258 211h132l-65 191zM120 826q0 35 24 58.5t57 23.5q35 0 58.5 -23.5t23.5 -58.5q0 -34 -23.5 -57.5t-58.5 -23.5q-34 1 -57.5 24t-23.5 57zM367 826q0 35 24 58.5t57 23.5q35 0 58.5 -23.5t23.5 -58.5 q0 -34 -23.5 -57t-58.5 -24q-33 0 -57 23.5t-24 57.5z" />
<glyph unicode="&#xc5;" horiz-adv-x="653" d="M324 851q57 0 93.5 -32.5t44 -75.5t-10 -87t-58.5 -65l240 -591h-161l-29 77h-237l-28 -77h-162l240 590q-41 21 -59 65t-10 87.5t44 76t93 32.5zM258 211h132l-65 186zM325 764q-33 0 -46.5 -26t0 -52t46.5 -26t47 26t0.5 52t-47.5 26z" />
<glyph unicode="&#xc6;" horiz-adv-x="795" d="M18 0l348 715h365v-140h-184v-144h156v-146h-156v-142h194v-143h-337v110h-165l-46 -110h-175zM296 243h108v257z" />
<glyph unicode="&#xc7;" horiz-adv-x="602" d="M211 -224l55 78q49 -33 92 -25q15 2 26 10t11 19q-1 27 -35 36t-68 1l22 113q-70 16 -124.5 56.5t-86.5 93.5t-45.5 116t-8 125.5t32 121.5t70 104t111 72t148.5 27q78 0 141 -28l-17 -147q-60 31 -124 31q-58 0 -104 -24t-69.5 -62.5t-34.5 -85t0 -93t34.5 -85 t69.5 -62.5t104 -24q76 0 138 32l19 -148q-73 -30 -157 -30h-3l-5 -36q48 -3 78 -33.5t29.5 -70.5t-29.5 -80q-39 -52 -116 -54t-154 52z" />
<glyph unicode="&#xc8;" horiz-adv-x="504" d="M450 0h-370v715h358v-143h-215v-143h188v-143h-188v-143h227v-143zM115 878h176l49 -115h-129z" />
<glyph unicode="&#xc9;" horiz-adv-x="504" d="M237 879h176l-96 -115h-129zM450 0h-370v715h358v-143h-215v-143h188v-143h-188v-143h227v-143z" />
<glyph unicode="&#xca;" horiz-adv-x="504" d="M450 0h-370v715h358v-143h-215v-143h188v-143h-188v-143h227v-143zM449 769h-150l-37 45l-35 -45h-149l139 134h91z" />
<glyph unicode="&#xcb;" horiz-adv-x="504" d="M74 833q0 31 23 52.5t56 21.5t56.5 -21.5t23.5 -52.5t-23.5 -51.5t-56.5 -20.5q-33 1 -56 21t-23 51zM288 833q0 31 23.5 52.5t56.5 21.5q34 0 57 -21.5t23 -52.5t-23 -51t-57 -21q-33 0 -56.5 20.5t-23.5 51.5zM450 0h-370v715h358v-143h-215v-143h188v-143h-188v-143 h227v-143z" />
<glyph unicode="&#xcc;" horiz-adv-x="304" d="M223 0h-143v715h143v-715zM3 901h170l49 -129h-126z" />
<glyph unicode="&#xcd;" horiz-adv-x="304" d="M133 901h170l-93 -129h-126zM223 0h-143v715h143v-715z" />
<glyph unicode="&#xce;" horiz-adv-x="304" d="M223 0h-143v715h143v-715zM325 770h-142l-35 48l-33 -48h-142l132 143h86z" />
<glyph unicode="&#xcf;" horiz-adv-x="304" d="M-30 849q0 34 22.5 57t54.5 23q33 0 55.5 -23t22.5 -57q0 -33 -22.5 -56t-55.5 -23q-32 1 -54.5 23.5t-22.5 55.5zM180 849q0 34 23 57t54 23q33 0 56 -23t23 -57q0 -33 -23 -55.5t-56 -23.5q-31 0 -54 23t-23 56zM223 0h-143v715h143v-715z" />
<glyph unicode="&#xd0;" horiz-adv-x="704" d="M3 285v133h77v297h213q86 0 155.5 -30.5t112.5 -81t66 -114.5t23 -131.5t-23 -131.5t-66 -114.5t-112.5 -81t-155.5 -30.5h-213v285h-77zM293 572h-70v-154h128v-133h-128v-142h70q66 0 115 32t71 79.5t22 103t-22 103t-71 79.5t-115 32z" />
<glyph unicode="&#xd1;" horiz-adv-x="704" d="M223 389v-389h-143v730h38l361 -420v404h144v-729h-38zM262 776l-87 38q15 50 44 78t70 27q20 -1 44 -11.5t38.5 -19.5t31 -5t28.5 28l86 -39q-14 -50 -44 -77.5t-71 -26.5q-20 1 -43.5 11.5t-38.5 19.5t-31 5t-27 -28z" />
<glyph unicode="&#xd2;" horiz-adv-x="847" d="M424 -10q89 0 161 31.5t116 83.5t68 118t24 135.5t-24 135.5t-68 118t-116 83.5t-161 31.5t-161 -31.5t-116 -83.5t-68 -118t-24 -135.5t24 -135.5t68 -118t116 -83.5t161 -31.5zM424 138q-59 0 -105 24.5t-70 63.5t-35 86t0 94t35 86t70 63.5t105 24.5q68 0 118.5 -32.5 t73 -82t22.5 -106.5t-22.5 -106.5t-73 -82t-118.5 -32.5zM274 925h186l53 -141h-138z" />
<glyph unicode="&#xd3;" horiz-adv-x="847" d="M424 -10q-89 0 -161 31.5t-116 83.5t-68 118t-24 135.5t24 135.5t68 118t116 83.5t161 31.5t161 -31.5t116 -83.5t68 -118t24 -135.5t-24 -135.5t-68 -118t-116 -83.5t-161 -31.5zM424 138q59 0 105 24.5t70 63.5t35 86t0 94t-35 86t-70 63.5t-105 24.5 q-68 0 -118.5 -32.5t-73 -82t-22.5 -106.5t22.5 -106.5t73 -82t118.5 -32.5zM414 928h183l-101 -141h-135z" />
<glyph unicode="&#xd4;" horiz-adv-x="847" d="M424 -10q89 0 161 31.5t116 83.5t68 118t24 135.5t-24 135.5t-68 118t-116 83.5t-161 31.5t-161 -31.5t-116 -83.5t-68 -118t-24 -135.5t24 -135.5t68 -118t116 -83.5t161 -31.5zM424 138q-59 0 -105 24.5t-70 63.5t-35 86t0 94t35 86t70 63.5t105 24.5q68 0 118.5 -32.5 t73 -82t22.5 -106.5t-22.5 -106.5t-73 -82t-118.5 -32.5zM625 780h-158l-39 46l-37 -46h-158l147 137h96z" />
<glyph unicode="&#xd5;" horiz-adv-x="847" d="M424 -10q-89 0 -161 31.5t-116 83.5t-68 118t-24 135.5t24 135.5t68 118t116 83.5t161 31.5t161 -31.5t116 -83.5t68 -118t24 -135.5t-24 -135.5t-68 -118t-116 -83.5t-161 -31.5zM424 138q59 0 105 24.5t70 63.5t35 86t0 94t-35 86t-70 63.5t-105 24.5 q-68 0 -118.5 -32.5t-73 -82t-22.5 -106.5t22.5 -106.5t73 -82t118.5 -32.5zM344 785l-87 38q15 50 44 78t70 27q20 -1 44 -11.5t38.5 -19.5t31 -5t28.5 28l86 -39q-14 -50 -44 -77.5t-71 -26.5q-20 1 -43.5 11.5t-38.5 19.5t-31 5t-27 -28z" />
<glyph unicode="&#xd6;" horiz-adv-x="847" d="M424 -10q-89 0 -161 31.5t-116 83.5t-68 118t-24 135.5t24 135.5t68 118t116 83.5t161 31.5t161 -31.5t116 -83.5t68 -118t24 -135.5t-24 -135.5t-68 -118t-116 -83.5t-161 -31.5zM424 138q59 0 105 24.5t70 63.5t35 86t0 94t-35 86t-70 63.5t-105 24.5 q-68 0 -118.5 -32.5t-73 -82t-22.5 -106.5t22.5 -106.5t73 -82t118.5 -32.5zM216 853q0 33 25 55.5t60 22.5q36 0 61 -22.5t25 -55.5t-25 -55.5t-61 -22.5q-35 1 -60 23t-25 55zM475 853q0 33 25.5 55.5t59.5 22.5q36 0 60.5 -22t24.5 -56q0 -33 -24.5 -55t-60.5 -23 q-34 0 -59.5 22.5t-25.5 55.5z" />
<glyph unicode="&#xd8;" horiz-adv-x="824" d="M532 700l48 83h147l-83 -144q55 -46 86.5 -113t37.5 -137.5t-15 -141.5t-64 -126.5t-116.5 -90t-165.5 -34.5q-67 0 -124 17l-48 -82h-147l83 144q-47 40 -78 95t-40.5 115.5t-4 122.5t34 117.5t71 99t108.5 69t145 25.5q71 0 125 -19zM568 507l-211 -365q5 -1 50 -1 q75 0 127.5 40t71 97t9.5 120.5t-47 108.5zM247 206l211 366q-8 2 -51 2q-60 0 -106.5 -26.5t-70 -68.5t-32 -90.5t4.5 -97.5t44 -85z" />
<glyph unicode="&#xd9;" d="M593 249q0 -61 -22 -111t-58.5 -80.5t-83 -47t-95 -16.5t-95 16.5t-83 47t-58.5 80.5t-22 111v466h143v-465q0 -43 24 -72t58 -36t68 0t58 36t24 72v465h142v-466zM195 909h167l48 -139h-124z" />
<glyph unicode="&#xda;" d="M313 909h167l-91 -139h-124zM593 249q0 -61 -22 -111t-58.5 -80.5t-83 -47t-95 -16.5t-95 16.5t-83 47t-58.5 80.5t-22 111v466h143v-465q0 -43 24 -72t58 -36t68 0t58 36t24 72v465h142v-466z" />
<glyph unicode="&#xdb;" d="M593 249q0 -61 -22 -111t-58.5 -80.5t-83 -47t-95 -16.5t-95 16.5t-83 47t-58.5 80.5t-22 111v466h143v-465q0 -43 24 -72t58 -36t68 0t58 36t24 72v465h142v-466zM522 781h-152l-37 47l-36 -47h-151l141 140h92z" />
<glyph unicode="&#xdc;" d="M593 249q0 -61 -22 -111t-58.5 -80.5t-83 -47t-95 -16.5t-95 16.5t-83 47t-58.5 80.5t-22 111v466h143v-465q0 -43 24 -72t58 -36t68 0t58 36t24 72v465h142v-466zM143 842q0 33 22.5 54.5t54.5 21.5q33 0 55 -21.5t22 -54.5q0 -31 -22.5 -52.5t-54.5 -21.5 q-32 1 -54.5 22t-22.5 52zM377 842q0 32 23 54t54 22q33 0 55 -21.5t22 -54.5q0 -31 -22 -52t-55 -22q-31 0 -54 21.5t-23 52.5z" />
<glyph unicode="&#xdd;" horiz-adv-x="649" d="M255 0v322l-249 393h174l146 -246l146 246h175l-250 -393v-322h-142zM299 913h183l-101 -141h-135z" />
<glyph unicode="&#xde;" horiz-adv-x="603" d="M223 0h-143v715h143v-125h138q57 0 102 -24.5t68 -63t34 -85.5t0 -94.5t-34 -86t-68 -63t-102 -24.5h-138v-149zM223 288h126q34 0 53.5 25t19.5 55t-19.5 55t-53.5 25h-126v-160z" />
<glyph unicode="&#xe0;" horiz-adv-x="653" d="M304 724h41l288 -724h-161l-29 77h-237l-28 -77h-162zM258 211h132l-65 191zM161 906h186l53 -141h-138z" />
<glyph unicode="&#xe1;" horiz-adv-x="653" d="M304 724h41l288 -724h-161l-29 77h-237l-28 -77h-162zM258 211h132l-65 191zM296 906h186l-101 -141h-138z" />
<glyph unicode="&#xe2;" horiz-adv-x="653" d="M304 724h41l288 -724h-161l-29 77h-237l-28 -77h-162zM258 211h132l-65 191zM511 759h-152l-37 47l-36 -47h-151l141 140h92z" />
<glyph unicode="&#xe3;" horiz-adv-x="653" d="M304 724h41l288 -724h-161l-29 77h-237l-28 -77h-162zM258 211h132l-65 191zM240 768l-87 38q15 50 44 78t70 27q20 -1 44 -11.5t38.5 -19.5t31 -5t28.5 28l86 -39q-14 -50 -44 -77.5t-71 -26.5q-20 1 -43.5 11.5t-38.5 19.5t-31 5t-27 -28z" />
<glyph unicode="&#xe4;" horiz-adv-x="653" d="M304 724h41l288 -724h-161l-29 77h-237l-28 -77h-162zM258 211h132l-65 191zM120 826q0 35 24 58.5t57 23.5q35 0 58.5 -23.5t23.5 -58.5q0 -34 -23.5 -57.5t-58.5 -23.5q-34 1 -57.5 24t-23.5 57zM367 826q0 35 24 58.5t57 23.5q35 0 58.5 -23.5t23.5 -58.5 q0 -34 -23.5 -57t-58.5 -24q-33 0 -57 23.5t-24 57.5z" />
<glyph unicode="&#xe5;" horiz-adv-x="653" d="M324 851q57 0 93.5 -32.5t44 -75.5t-10 -87t-58.5 -65l240 -591h-161l-29 77h-237l-28 -77h-162l240 590q-41 21 -59 65t-10 87.5t44 76t93 32.5zM258 211h132l-65 186zM325 764q-33 0 -46.5 -26t0 -52t46.5 -26t47 26t0.5 52t-47.5 26z" />
<glyph unicode="&#xe6;" horiz-adv-x="795" d="M18 0l348 715h365v-140h-184v-144h156v-146h-156v-142h194v-143h-337v110h-165l-46 -110h-175zM296 243h108v257z" />
<glyph unicode="&#xe7;" horiz-adv-x="602" d="M211 -224l55 78q49 -33 92 -25q15 2 26 10t11 19q-1 27 -35 36t-68 1l22 113q-70 16 -124.5 56.5t-86.5 93.5t-45.5 116t-8 125.5t32 121.5t70 104t111 72t148.5 27q78 0 141 -28l-17 -147q-60 31 -124 31q-58 0 -104 -24t-69.5 -62.5t-34.5 -85t0 -93t34.5 -85 t69.5 -62.5t104 -24q76 0 138 32l19 -148q-73 -30 -157 -30h-3l-5 -36q48 -3 78 -33.5t29.5 -70.5t-29.5 -80q-39 -52 -116 -54t-154 52z" />
<glyph unicode="&#xe8;" horiz-adv-x="504" d="M450 0h-370v715h358v-143h-215v-143h188v-143h-188v-143h227v-143zM115 878h176l49 -115h-129z" />
<glyph unicode="&#xe9;" horiz-adv-x="504" d="M237 879h176l-96 -115h-129zM450 0h-370v715h358v-143h-215v-143h188v-143h-188v-143h227v-143z" />
<glyph unicode="&#xea;" horiz-adv-x="504" d="M450 0h-370v715h358v-143h-215v-143h188v-143h-188v-143h227v-143zM449 769h-150l-37 45l-35 -45h-149l139 134h91z" />
<glyph unicode="&#xeb;" horiz-adv-x="504" d="M74 833q0 31 23 52.5t56 21.5t56.5 -21.5t23.5 -52.5t-23.5 -51.5t-56.5 -20.5q-33 1 -56 21t-23 51zM288 833q0 31 23.5 52.5t56.5 21.5q34 0 57 -21.5t23 -52.5t-23 -51t-57 -21q-33 0 -56.5 20.5t-23.5 51.5zM450 0h-370v715h358v-143h-215v-143h188v-143h-188v-143 h227v-143z" />
<glyph unicode="&#xec;" horiz-adv-x="304" d="M223 0h-143v715h143v-715zM3 901h170l49 -129h-126z" />
<glyph unicode="&#xed;" horiz-adv-x="304" d="M133 901h170l-93 -129h-126zM223 0h-143v715h143v-715z" />
<glyph unicode="&#xee;" horiz-adv-x="304" d="M223 0h-143v715h143v-715zM325 770h-142l-35 48l-33 -48h-142l132 143h86z" />
<glyph unicode="&#xef;" horiz-adv-x="304" d="M-30 849q0 34 22.5 57t54.5 23q33 0 55.5 -23t22.5 -57q0 -33 -22.5 -56t-55.5 -23q-32 1 -54.5 23.5t-22.5 55.5zM180 849q0 34 23 57t54 23q33 0 56 -23t23 -57q0 -33 -23 -55.5t-56 -23.5q-31 0 -54 23t-23 56zM223 0h-143v715h143v-715z" />
<glyph unicode="&#xf0;" horiz-adv-x="704" d="M3 285v133h77v297h213q86 0 155.5 -30.5t112.5 -81t66 -114.5t23 -131.5t-23 -131.5t-66 -114.5t-112.5 -81t-155.5 -30.5h-213v285h-77zM293 572h-70v-154h128v-133h-128v-142h70q66 0 115 32t71 79.5t22 103t-22 103t-71 79.5t-115 32z" />
<glyph unicode="&#xf1;" horiz-adv-x="704" d="M223 389v-389h-143v730h38l361 -420v404h144v-729h-38zM262 776l-87 38q15 50 44 78t70 27q20 -1 44 -11.5t38.5 -19.5t31 -5t28.5 28l86 -39q-14 -50 -44 -77.5t-71 -26.5q-20 1 -43.5 11.5t-38.5 19.5t-31 5t-27 -28z" />
<glyph unicode="&#xf2;" horiz-adv-x="847" d="M424 -10q89 0 161 31.5t116 83.5t68 118t24 135.5t-24 135.5t-68 118t-116 83.5t-161 31.5t-161 -31.5t-116 -83.5t-68 -118t-24 -135.5t24 -135.5t68 -118t116 -83.5t161 -31.5zM424 138q-59 0 -105 24.5t-70 63.5t-35 86t0 94t35 86t70 63.5t105 24.5q68 0 118.5 -32.5 t73 -82t22.5 -106.5t-22.5 -106.5t-73 -82t-118.5 -32.5zM274 925h186l53 -141h-138z" />
<glyph unicode="&#xf3;" horiz-adv-x="847" d="M424 -10q-89 0 -161 31.5t-116 83.5t-68 118t-24 135.5t24 135.5t68 118t116 83.5t161 31.5t161 -31.5t116 -83.5t68 -118t24 -135.5t-24 -135.5t-68 -118t-116 -83.5t-161 -31.5zM424 138q59 0 105 24.5t70 63.5t35 86t0 94t-35 86t-70 63.5t-105 24.5 q-68 0 -118.5 -32.5t-73 -82t-22.5 -106.5t22.5 -106.5t73 -82t118.5 -32.5zM414 928h183l-101 -141h-135z" />
<glyph unicode="&#xf4;" horiz-adv-x="847" d="M424 -10q89 0 161 31.5t116 83.5t68 118t24 135.5t-24 135.5t-68 118t-116 83.5t-161 31.5t-161 -31.5t-116 -83.5t-68 -118t-24 -135.5t24 -135.5t68 -118t116 -83.5t161 -31.5zM424 138q-59 0 -105 24.5t-70 63.5t-35 86t0 94t35 86t70 63.5t105 24.5q68 0 118.5 -32.5 t73 -82t22.5 -106.5t-22.5 -106.5t-73 -82t-118.5 -32.5zM625 780h-158l-39 46l-37 -46h-158l147 137h96z" />
<glyph unicode="&#xf5;" horiz-adv-x="847" d="M424 -10q-89 0 -161 31.5t-116 83.5t-68 118t-24 135.5t24 135.5t68 118t116 83.5t161 31.5t161 -31.5t116 -83.5t68 -118t24 -135.5t-24 -135.5t-68 -118t-116 -83.5t-161 -31.5zM424 138q59 0 105 24.5t70 63.5t35 86t0 94t-35 86t-70 63.5t-105 24.5 q-68 0 -118.5 -32.5t-73 -82t-22.5 -106.5t22.5 -106.5t73 -82t118.5 -32.5zM344 785l-87 38q15 50 44 78t70 27q20 -1 44 -11.5t38.5 -19.5t31 -5t28.5 28l86 -39q-14 -50 -44 -77.5t-71 -26.5q-20 1 -43.5 11.5t-38.5 19.5t-31 5t-27 -28z" />
<glyph unicode="&#xf6;" horiz-adv-x="847" d="M424 -10q-89 0 -161 31.5t-116 83.5t-68 118t-24 135.5t24 135.5t68 118t116 83.5t161 31.5t161 -31.5t116 -83.5t68 -118t24 -135.5t-24 -135.5t-68 -118t-116 -83.5t-161 -31.5zM424 138q59 0 105 24.5t70 63.5t35 86t0 94t-35 86t-70 63.5t-105 24.5 q-68 0 -118.5 -32.5t-73 -82t-22.5 -106.5t22.5 -106.5t73 -82t118.5 -32.5zM216 853q0 33 25 55.5t60 22.5q36 0 61 -22.5t25 -55.5t-25 -55.5t-61 -22.5q-35 1 -60 23t-25 55zM475 853q0 33 25.5 55.5t59.5 22.5q36 0 60.5 -22t24.5 -56q0 -33 -24.5 -55t-60.5 -23 q-34 0 -59.5 22.5t-25.5 55.5z" />
<glyph unicode="&#xf8;" horiz-adv-x="824" d="M532 700l48 83h147l-83 -144q55 -46 86.5 -113t37.5 -137.5t-15 -141.5t-64 -126.5t-116.5 -90t-165.5 -34.5q-67 0 -124 17l-48 -82h-147l83 144q-47 40 -78 95t-40.5 115.5t-4 122.5t34 117.5t71 99t108.5 69t145 25.5q71 0 125 -19zM568 507l-211 -365q5 -1 50 -1 q75 0 127.5 40t71 97t9.5 120.5t-47 108.5zM247 206l211 366q-8 2 -51 2q-60 0 -106.5 -26.5t-70 -68.5t-32 -90.5t4.5 -97.5t44 -85z" />
<glyph unicode="&#xf9;" d="M593 249q0 -61 -22 -111t-58.5 -80.5t-83 -47t-95 -16.5t-95 16.5t-83 47t-58.5 80.5t-22 111v466h143v-465q0 -43 24 -72t58 -36t68 0t58 36t24 72v465h142v-466zM195 909h167l48 -139h-124z" />
<glyph unicode="&#xfa;" d="M313 909h167l-91 -139h-124zM593 249q0 -61 -22 -111t-58.5 -80.5t-83 -47t-95 -16.5t-95 16.5t-83 47t-58.5 80.5t-22 111v466h143v-465q0 -43 24 -72t58 -36t68 0t58 36t24 72v465h142v-466z" />
<glyph unicode="&#xfb;" d="M593 249q0 -61 -22 -111t-58.5 -80.5t-83 -47t-95 -16.5t-95 16.5t-83 47t-58.5 80.5t-22 111v466h143v-465q0 -43 24 -72t58 -36t68 0t58 36t24 72v465h142v-466zM522 781h-152l-37 47l-36 -47h-151l141 140h92z" />
<glyph unicode="&#xfc;" d="M593 249q0 -61 -22 -111t-58.5 -80.5t-83 -47t-95 -16.5t-95 16.5t-83 47t-58.5 80.5t-22 111v466h143v-465q0 -43 24 -72t58 -36t68 0t58 36t24 72v465h142v-466zM143 842q0 33 22.5 54.5t54.5 21.5q33 0 55 -21.5t22 -54.5q0 -31 -22.5 -52.5t-54.5 -21.5 q-32 1 -54.5 22t-22.5 52zM377 842q0 32 23 54t54 22q33 0 55 -21.5t22 -54.5q0 -31 -22 -52t-55 -22q-31 0 -54 21.5t-23 52.5z" />
<glyph unicode="&#xfd;" horiz-adv-x="649" d="M255 0v322l-249 393h174l146 -246l146 246h175l-250 -393v-322h-142zM299 913h183l-101 -141h-135z" />
<glyph unicode="&#xfe;" horiz-adv-x="603" d="M223 0h-143v715h143v-125h138q57 0 102 -24.5t68 -63t34 -85.5t0 -94.5t-34 -86t-68 -63t-102 -24.5h-138v-149zM223 288h126q34 0 53.5 25t19.5 55t-19.5 55t-53.5 25h-126v-160z" />
<glyph unicode="&#xff;" horiz-adv-x="649" d="M255 0v322l-249 393h174l146 -246l146 246h175l-250 -393v-322h-142zM119 843q0 35 24 58.5t57 23.5q35 0 58.5 -23.5t23.5 -58.5q0 -34 -23.5 -57.5t-58.5 -23.5q-34 1 -57.5 24t-23.5 57zM366 843q0 35 24 58.5t57 23.5q35 0 58.5 -23.5t23.5 -58.5q0 -34 -23.5 -57 t-58.5 -24q-33 0 -57 23.5t-24 57.5z" />
<glyph unicode="&#x100;" horiz-adv-x="653" d="M303 729h43l287 -729h-161l-29 77h-237l-28 -77h-162zM258 211h132l-65 197zM192 768v131h264v-131h-264z" />
<glyph unicode="&#x101;" horiz-adv-x="653" d="M303 729h43l287 -729h-161l-29 77h-237l-28 -77h-162zM258 211h132l-65 197zM192 768v131h264v-131h-264z" />
<glyph unicode="&#x102;" horiz-adv-x="653" d="M303 729h43l287 -729h-161l-29 77h-237l-28 -77h-162zM258 211h132l-65 197zM325 867q46 0 46 42h94q3 -43 -10.5 -73t-37.5 -44t-46.5 -19.5t-45.5 -5.5q-17 0 -34.5 3t-38.5 12.5t-36 24t-24.5 41.5t-6.5 61h94q0 -42 46 -42z" />
<glyph unicode="&#x103;" horiz-adv-x="653" d="M303 729h43l287 -729h-161l-29 77h-237l-28 -77h-162zM258 211h132l-65 197zM325 867q46 0 46 42h94q3 -43 -10.5 -73t-37.5 -44t-46.5 -19.5t-45.5 -5.5q-17 0 -34.5 3t-38.5 12.5t-36 24t-24.5 41.5t-6.5 61h94q0 -42 46 -42z" />
<glyph unicode="&#x104;" horiz-adv-x="653" d="M16 0l301 741h15l301 -741q-39 -33 -64 -74t-11 -67q10 -14 30.5 -13t39.5 11l9 -97q-50 -22 -111 -14.5t-85 53.5q-19 33 -12 71.5t26.5 70.5t48.5 59h-32l-29 77h-237l-28 -77h-162zM258 211h132l-65 186z" />
<glyph unicode="&#x105;" horiz-adv-x="653" d="M16 0l301 741h15l301 -741q-39 -33 -64 -74t-11 -67q10 -14 30.5 -13t39.5 11l9 -97q-50 -22 -111 -14.5t-85 53.5q-19 33 -12 71.5t26.5 70.5t48.5 59h-32l-29 77h-237l-28 -77h-162zM258 211h132l-65 186z" />
<glyph unicode="&#x106;" horiz-adv-x="602" d="M535 549q-60 31 -124 31q-58 0 -104 -24t-69.5 -62.5t-34.5 -85t0 -93t34.5 -85t69.5 -62.5t104 -24q76 0 138 32l19 -148q-73 -30 -157 -30q-100 0 -178 40t-118.5 104t-59.5 141.5t0 155t59.5 141.5t118.5 104t178 40q78 0 141 -28zM348 916h170l-94 -142h-125z" />
<glyph unicode="&#x107;" horiz-adv-x="602" d="M535 549q-60 31 -124 31q-58 0 -104 -24t-69.5 -62.5t-34.5 -85t0 -93t34.5 -85t69.5 -62.5t104 -24q76 0 138 32l19 -148q-73 -30 -157 -30q-100 0 -178 40t-118.5 104t-59.5 141.5t0 155t59.5 141.5t118.5 104t178 40q78 0 141 -28zM348 916h170l-94 -142h-125z" />
<glyph unicode="&#x108;" horiz-adv-x="602" d="M535 549l17 147q-63 28 -141 28q-100 0 -178 -40t-118.5 -104t-59.5 -141.5t0 -155t59.5 -141.5t118.5 -104t178 -40q84 0 157 30l-19 148q-62 -32 -138 -32q-58 0 -104 24t-69.5 62.5t-34.5 85t0 93t34.5 85t69.5 62.5t104 24q64 0 124 -31zM555 771h-152l-37 47 l-36 -47h-151l141 140h92z" />
<glyph unicode="&#x109;" horiz-adv-x="602" d="M535 549l17 147q-63 28 -141 28q-100 0 -178 -40t-118.5 -104t-59.5 -141.5t0 -155t59.5 -141.5t118.5 -104t178 -40q84 0 157 30l-19 148q-62 -32 -138 -32q-58 0 -104 24t-69.5 62.5t-34.5 85t0 93t34.5 85t69.5 62.5t104 24q64 0 124 -31zM555 771h-152l-37 47 l-36 -47h-151l141 140h92z" />
<glyph unicode="&#x10a;" horiz-adv-x="602" d="M535 549q-60 31 -124 31q-58 0 -104 -24t-69.5 -62.5t-34.5 -85t0 -93t34.5 -85t69.5 -62.5t104 -24q76 0 138 32l19 -148q-73 -30 -157 -30q-100 0 -178 40t-118.5 104t-59.5 141.5t0 155t59.5 141.5t118.5 104t178 40q78 0 141 -28zM390 929q52 0 73 -37.5t-0.5 -75.5 t-72.5 -38q-39 0 -61 23.5t-22 52t22 52t61 23.5z" />
<glyph unicode="&#x10b;" horiz-adv-x="602" d="M535 549q-60 31 -124 31q-58 0 -104 -24t-69.5 -62.5t-34.5 -85t0 -93t34.5 -85t69.5 -62.5t104 -24q76 0 138 32l19 -148q-73 -30 -157 -30q-100 0 -178 40t-118.5 104t-59.5 141.5t0 155t59.5 141.5t118.5 104t178 40q78 0 141 -28zM390 929q52 0 73 -37.5t-0.5 -75.5 t-72.5 -38q-39 0 -61 23.5t-22 52t22 52t61 23.5z" />
<glyph unicode="&#x10c;" horiz-adv-x="602" d="M535 549q-60 31 -124 31q-58 0 -104 -24t-69.5 -62.5t-34.5 -85t0 -93t34.5 -85t69.5 -62.5t104 -24q76 0 138 32l19 -148q-73 -30 -157 -30q-100 0 -178 40t-118.5 104t-59.5 141.5t0 155t59.5 141.5t118.5 104t178 40q78 0 141 -28zM415 912h152l-143 -140h-92 l-141 140h151l36 -47z" />
<glyph unicode="&#x10d;" horiz-adv-x="602" d="M535 549q-60 31 -124 31q-58 0 -104 -24t-69.5 -62.5t-34.5 -85t0 -93t34.5 -85t69.5 -62.5t104 -24q76 0 138 32l19 -148q-73 -30 -157 -30q-100 0 -178 40t-118.5 104t-59.5 141.5t0 155t59.5 141.5t118.5 104t178 40q78 0 141 -28zM415 912h152l-143 -140h-92 l-141 140h151l36 -47z" />
<glyph unicode="&#x10e;" horiz-adv-x="704" d="M293 715q86 0 155.5 -30.5t112.5 -81t66 -114.5t23 -131.5t-23 -131.5t-66 -114.5t-112.5 -81t-155.5 -30.5h-213v715h213zM293 572h-70v-429h70q66 0 115 32t71 79.5t22 103t-22 103t-71 79.5t-115 32zM337 908h152l-143 -140h-92l-141 140h151l36 -47z" />
<glyph unicode="&#x10f;" horiz-adv-x="704" d="M293 715q86 0 155.5 -30.5t112.5 -81t66 -114.5t23 -131.5t-23 -131.5t-66 -114.5t-112.5 -81t-155.5 -30.5h-213v715h213zM293 572h-70v-429h70q66 0 115 32t71 79.5t22 103t-22 103t-71 79.5t-115 32zM337 908h152l-143 -140h-92l-141 140h151l36 -47z" />
<glyph unicode="&#x110;" horiz-adv-x="704" d="M3 285v133h77v297h213q86 0 155.5 -30.5t112.5 -81t66 -114.5t23 -131.5t-23 -131.5t-66 -114.5t-112.5 -81t-155.5 -30.5h-213v285h-77zM293 572h-70v-154h128v-133h-128v-142h70q66 0 115 32t71 79.5t22 103t-22 103t-71 79.5t-115 32z" />
<glyph unicode="&#x111;" horiz-adv-x="704" d="M3 285v133h77v297h213q86 0 155.5 -30.5t112.5 -81t66 -114.5t23 -131.5t-23 -131.5t-66 -114.5t-112.5 -81t-155.5 -30.5h-213v285h-77zM293 572h-70v-154h128v-133h-128v-142h70q66 0 115 32t71 79.5t22 103t-22 103t-71 79.5t-115 32z" />
<glyph unicode="&#x112;" horiz-adv-x="504" d="M450 0h-370v715h358v-143h-215v-143h188v-143h-188v-143h227v-143zM135 775v121h262v-121h-262z" />
<glyph unicode="&#x113;" horiz-adv-x="504" d="M450 0h-370v715h358v-143h-215v-143h188v-143h-188v-143h227v-143zM135 775v121h262v-121h-262z" />
<glyph unicode="&#x114;" horiz-adv-x="504" d="M450 0h-370v715h358v-143h-215v-143h188v-143h-188v-143h227v-143zM264 864q46 0 46 42h94q3 -43 -10.5 -73t-37.5 -44t-46.5 -19.5t-45.5 -5.5q-17 0 -34.5 3t-38.5 12.5t-36 24t-24.5 41.5t-6.5 61h94q0 -42 46 -42z" />
<glyph unicode="&#x115;" horiz-adv-x="504" d="M450 0h-370v715h358v-143h-215v-143h188v-143h-188v-143h227v-143zM264 864q46 0 46 42h94q3 -43 -10.5 -73t-37.5 -44t-46.5 -19.5t-45.5 -5.5q-17 0 -34.5 3t-38.5 12.5t-36 24t-24.5 41.5t-6.5 61h94q0 -42 46 -42z" />
<glyph unicode="&#x116;" horiz-adv-x="504" d="M450 0h-370v715h358v-143h-215v-143h188v-143h-188v-143h227v-143zM263 912q52 0 72.5 -36.5t-0.5 -73t-72 -36.5q-39 0 -61 23t-22 50t22 50t61 23z" />
<glyph unicode="&#x117;" horiz-adv-x="504" d="M450 0h-370v715h358v-143h-215v-143h188v-143h-188v-143h227v-143zM263 912q52 0 72.5 -36.5t-0.5 -73t-72 -36.5q-39 0 -61 23t-22 50t22 50t61 23z" />
<glyph unicode="&#x118;" horiz-adv-x="504" d="M450 143v-143q-43 -26 -63 -65.5t-7 -65.5q10 -13 30 -12t39 10l9 -94q-36 -13 -72.5 -15.5t-70.5 10.5t-50 43q-23 42 -0.5 94.5t66.5 94.5h-251v715h358v-143h-215v-143h188v-143h-188v-143h227z" />
<glyph unicode="&#x119;" horiz-adv-x="504" d="M450 143v-143q-43 -26 -63 -65.5t-7 -65.5q10 -13 30 -12t39 10l9 -94q-36 -13 -72.5 -15.5t-70.5 10.5t-50 43q-23 42 -0.5 94.5t66.5 94.5h-251v715h358v-143h-215v-143h188v-143h-188v-143h227z" />
<glyph unicode="&#x11a;" horiz-adv-x="504" d="M450 0h-370v715h358v-143h-215v-143h188v-143h-188v-143h227v-143zM306 890h148l-139 -128h-90l-138 128h148l35 -43z" />
<glyph unicode="&#x11b;" horiz-adv-x="504" d="M450 0h-370v715h358v-143h-215v-143h188v-143h-188v-143h227v-143zM306 890h148l-139 -128h-90l-138 128h148l35 -43z" />
<glyph unicode="&#x11c;" horiz-adv-x="673" d="M596 44v314h-145v-215q-26 -4 -40 -4q-57 0 -102 23.5t-69 61.5t-36 84t-1.5 92t34 85t69.5 64t105 27q84 2 150 -26l17 145q-93 29 -167 26q-80 -3 -146 -29.5t-108.5 -69t-71 -97t-34 -114t2 -119t37.5 -112.5t72.5 -94.5t107 -65.5t140.5 -24q100 0 185 48zM568 772 h-152l-37 47l-36 -47h-151l141 140h92z" />
<glyph unicode="&#x11d;" horiz-adv-x="673" d="M596 44v314h-145v-215q-26 -4 -40 -4q-57 0 -102 23.5t-69 61.5t-36 84t-1.5 92t34 85t69.5 64t105 27q84 2 150 -26l17 145q-93 29 -167 26q-80 -3 -146 -29.5t-108.5 -69t-71 -97t-34 -114t2 -119t37.5 -112.5t72.5 -94.5t107 -65.5t140.5 -24q100 0 185 48zM568 772 h-152l-37 47l-36 -47h-151l141 140h92z" />
<glyph unicode="&#x11e;" horiz-adv-x="673" d="M596 44q-85 -48 -185 -48q-76 0 -140.5 24t-107 65.5t-72.5 94.5t-37.5 112.5t-2 119t34 114t71 97t108.5 69t146 29.5q74 3 167 -26l-17 -145q-66 28 -150 26q-59 -2 -105 -27t-69.5 -64t-34 -85t1.5 -92t36 -84t69 -61.5t102 -23.5q14 0 40 4v215h145v-314zM378 865 q46 0 46 42h94q3 -43 -10.5 -73t-37.5 -44t-46.5 -19.5t-45.5 -5.5q-17 0 -34.5 3t-38.5 12.5t-36 24t-24.5 41.5t-6.5 61h94q0 -42 46 -42z" />
<glyph unicode="&#x11f;" horiz-adv-x="673" d="M596 44q-85 -48 -185 -48q-76 0 -140.5 24t-107 65.5t-72.5 94.5t-37.5 112.5t-2 119t34 114t71 97t108.5 69t146 29.5q74 3 167 -26l-17 -145q-66 28 -150 26q-59 -2 -105 -27t-69.5 -64t-34 -85t1.5 -92t36 -84t69 -61.5t102 -23.5q14 0 40 4v215h145v-314zM378 865 q46 0 46 42h94q3 -43 -10.5 -73t-37.5 -44t-46.5 -19.5t-45.5 -5.5q-17 0 -34.5 3t-38.5 12.5t-36 24t-24.5 41.5t-6.5 61h94q0 -42 46 -42z" />
<glyph unicode="&#x120;" horiz-adv-x="673" d="M596 44q-85 -48 -185 -48q-76 0 -140.5 24t-107 65.5t-72.5 94.5t-37.5 112.5t-2 119t34 114t71 97t108.5 69t146 29.5q74 3 167 -26l-17 -145q-66 28 -150 26q-59 -2 -105 -27t-69.5 -64t-34 -85t1.5 -92t36 -84t69 -61.5t102 -23.5q14 0 40 4v215h145v-314zM391 919 q40 0 62 -23t21.5 -51t-22.5 -51t-61 -23t-61.5 23t-22.5 51t22.5 51t61.5 23z" />
<glyph unicode="&#x121;" horiz-adv-x="673" d="M596 44q-85 -48 -185 -48q-76 0 -140.5 24t-107 65.5t-72.5 94.5t-37.5 112.5t-2 119t34 114t71 97t108.5 69t146 29.5q74 3 167 -26l-17 -145q-66 28 -150 26q-59 -2 -105 -27t-69.5 -64t-34 -85t1.5 -92t36 -84t69 -61.5t102 -23.5q14 0 40 4v215h145v-314zM391 919 q40 0 62 -23t21.5 -51t-22.5 -51t-61 -23t-61.5 23t-22.5 51t22.5 51t61.5 23z" />
<glyph unicode="&#x122;" horiz-adv-x="673" d="M400 -260h-116l38 204h148zM596 44q-85 -48 -185 -48q-76 0 -140.5 24t-107 65.5t-72.5 94.5t-37.5 112.5t-2 119t34 114t71 97t108.5 69t146 29.5q74 3 167 -26l-17 -145q-66 28 -150 26q-59 -2 -105 -27t-69.5 -64t-34 -85t1.5 -92t36 -84t69 -61.5t102 -23.5 q14 0 40 4v215h145v-314z" />
<glyph unicode="&#x123;" horiz-adv-x="673" d="M400 -260h-116l38 204h148zM596 44q-85 -48 -185 -48q-76 0 -140.5 24t-107 65.5t-72.5 94.5t-37.5 112.5t-2 119t34 114t71 97t108.5 69t146 29.5q74 3 167 -26l-17 -145q-66 28 -150 26q-59 -2 -105 -27t-69.5 -64t-34 -85t1.5 -92t36 -84t69 -61.5t102 -23.5 q14 0 40 4v215h145v-314z" />
<glyph unicode="&#x124;" horiz-adv-x="661" d="M580 0h-143v286h-214v-286h-143v715h143v-286h214v286h143v-715zM517 772h-152l-37 47l-36 -47h-151l141 140h92z" />
<glyph unicode="&#x125;" horiz-adv-x="661" d="M580 0h-143v286h-214v-286h-143v715h143v-286h214v286h143v-715zM517 772h-152l-37 47l-36 -47h-151l141 140h92z" />
<glyph unicode="&#x126;" horiz-adv-x="661" d="M17 523v106h63v86h143v-86h214v86h143v-86h63v-106h-63v-523h-143v286h-214v-286h-143v523h-63zM223 429h214v94h-214v-94z" />
<glyph unicode="&#x127;" horiz-adv-x="661" d="M17 523v106h63v86h143v-86h214v86h143v-86h63v-106h-63v-523h-143v286h-214v-286h-143v523h-63zM223 429h214v94h-214v-94z" />
<glyph unicode="&#x128;" horiz-adv-x="304" d="M223 0h-143v715h143v-715zM71 777l-80 34q13 43 40 68t64 24q18 -1 40 -10.5t35.5 -17t28.5 -4t26 24.5l79 -35q-13 -44 -40.5 -68t-64.5 -23q-15 1 -32.5 7.5t-29.5 13.5t-24.5 10.5t-22.5 -2t-19 -22.5z" />
<glyph unicode="&#x129;" horiz-adv-x="304" d="M223 0h-143v715h143v-715zM71 777l-80 34q13 43 40 68t64 24q18 -1 40 -10.5t35.5 -17t28.5 -4t26 24.5l79 -35q-13 -44 -40.5 -68t-64.5 -23q-15 1 -32.5 7.5t-29.5 13.5t-24.5 10.5t-22.5 -2t-19 -22.5z" />
<glyph unicode="&#x12a;" horiz-adv-x="304" d="M223 0h-143v715h143v-715zM25 779v123h258v-123h-258z" />
<glyph unicode="&#x12b;" horiz-adv-x="304" d="M223 0h-143v715h143v-715zM25 779v123h258v-123h-258z" />
<glyph unicode="&#x12c;" horiz-adv-x="304" d="M223 0h-143v715h143v-715zM153 868q46 0 46 42h94q3 -43 -10.5 -73t-37.5 -44t-46.5 -19.5t-45.5 -5.5q-17 0 -34.5 3t-38.5 12.5t-36 24t-24.5 41.5t-6.5 61h94q0 -42 46 -42z" />
<glyph unicode="&#x12d;" horiz-adv-x="304" d="M223 0h-143v715h143v-715zM153 868q46 0 46 42h94q3 -43 -10.5 -73t-37.5 -44t-46.5 -19.5t-45.5 -5.5q-17 0 -34.5 3t-38.5 12.5t-36 24t-24.5 41.5t-6.5 61h94q0 -42 46 -42z" />
<glyph unicode="&#x12e;" horiz-adv-x="304" d="M223 0q-32 -35 -51 -73t-7 -62q10 -14 30.5 -13t39.5 11l9 -97q-50 -22 -111 -14.5t-85 53.5q-19 31 -11 68.5t27.5 68.5t47.5 58h-32v715h143v-715z" />
<glyph unicode="&#x12f;" horiz-adv-x="304" d="M223 0q-32 -35 -51 -73t-7 -62q10 -14 30.5 -13t39.5 11l9 -97q-50 -22 -111 -14.5t-85 53.5q-19 31 -11 68.5t27.5 68.5t47.5 58h-32v715h143v-715z" />
<glyph unicode="&#x130;" horiz-adv-x="304" d="M223 0h-143v715h143v-715zM154 928q52 0 72.5 -39t-0.5 -78.5t-72 -39.5q-38 0 -60 24.5t-22 54t22 54t60 24.5z" />
<glyph unicode="&#x131;" horiz-adv-x="304" d="M223 0h-143v715h143v-715z" />
<glyph unicode="&#x132;" horiz-adv-x="769" d="M223 0h-143v715h143v-715zM336 0v143h137q31 0 51.5 21t20.5 51v500h145v-500q0 -215 -213 -215h-141z" />
<glyph unicode="&#x133;" horiz-adv-x="769" d="M223 0h-143v715h143v-715zM336 0v143h137q31 0 51.5 21t20.5 51v500h145v-500q0 -215 -213 -215h-141z" />
<glyph unicode="&#x134;" horiz-adv-x="465" d="M32 0v143h137q31 0 51.5 21t20.5 51v500h145v-500q0 -215 -213 -215h-141zM488 769h-152l-37 47l-36 -47h-151l141 140h92z" />
<glyph unicode="&#x135;" horiz-adv-x="465" d="M32 0v143h137q31 0 51.5 21t20.5 51v500h145v-500q0 -215 -213 -215h-141zM488 769h-152l-37 47l-36 -47h-151l141 140h92z" />
<glyph unicode="&#x136;" horiz-adv-x="604" d="M206 -254h116l70 204h-148zM80 0v715h143v-285l180 285h167l-232 -353l252 -362h-177l-190 280v-280h-143z" />
<glyph unicode="&#x137;" horiz-adv-x="604" d="M206 -254h116l70 204h-148zM80 0v715h143v-285l180 285h167l-232 -353l252 -362h-177l-190 280v-280h-143z" />
<glyph unicode="&#x138;" horiz-adv-x="604" d="M80 0v715h143v-285l180 285h167l-232 -353l252 -362h-177l-190 280v-280h-143z" />
<glyph unicode="&#x139;" horiz-adv-x="493" d="M80 715h143v-572h227v-143h-370v715zM136 909h167l-92 -142h-123z" />
<glyph unicode="&#x13a;" horiz-adv-x="493" d="M80 715h143v-572h227v-143h-370v715zM136 909h167l-92 -142h-123z" />
<glyph unicode="&#x13b;" horiz-adv-x="493" d="M274 -247h-115l38 190h146zM80 715h143v-572h227v-143h-370v715z" />
<glyph unicode="&#x13c;" horiz-adv-x="493" d="M274 -247h-115l38 190h146zM80 715h143v-572h227v-143h-370v715z" />
<glyph unicode="&#x13d;" horiz-adv-x="493" d="M80 715h143v-572h227v-143h-370v715zM347 718h138l-73 -204h-105z" />
<glyph unicode="&#x13e;" horiz-adv-x="493" d="M80 715h143v-572h227v-143h-370v715zM347 718h138l-73 -204h-105z" />
<glyph unicode="&#x13f;" horiz-adv-x="493" d="M80 715h143v-572h227v-143h-370v715zM379 462q52 0 72.5 -40t-0.5 -80.5t-72 -40.5q-38 0 -60 25t-22 55.5t22 55.5t60 25z" />
<glyph unicode="&#x140;" horiz-adv-x="493" d="M80 715h143v-572h227v-143h-370v715zM379 462q52 0 72.5 -40t-0.5 -80.5t-72 -40.5q-38 0 -60 25t-22 55.5t22 55.5t60 25z" />
<glyph unicode="&#x141;" horiz-adv-x="489" d="M85 377v338h142v-289l144 48v-129l-144 -49v-152h226v-144h-368v248l-85 -29v129z" />
<glyph unicode="&#x142;" horiz-adv-x="489" d="M85 377v338h142v-289l144 48v-129l-144 -49v-152h226v-144h-368v248l-85 -29v129z" />
<glyph unicode="&#x143;" horiz-adv-x="704" d="M223 389v-389h-143v730h38l361 -420v404h144v-729h-38zM303 908h183l-101 -141h-135z" />
<glyph unicode="&#x144;" horiz-adv-x="704" d="M223 389v-389h-143v730h38l361 -420v404h144v-729h-38zM303 908h183l-101 -141h-135z" />
<glyph unicode="&#x145;" horiz-adv-x="704" d="M392 -244h-115l38 190h146zM223 389v-389h-143v730h38l361 -420v404h144v-729h-38z" />
<glyph unicode="&#x146;" horiz-adv-x="704" d="M392 -244h-115l38 190h146zM223 389v-389h-143v730h38l361 -420v404h144v-729h-38z" />
<glyph unicode="&#x147;" horiz-adv-x="704" d="M223 389v-389h-143v730h38l361 -420v404h144v-729h-38zM381 906h152l-143 -140h-92l-141 140h151l36 -47z" />
<glyph unicode="&#x148;" horiz-adv-x="704" d="M223 389v-389h-143v730h38l361 -420v404h144v-729h-38zM381 906h152l-143 -140h-92l-141 140h151l36 -47z" />
<glyph unicode="&#x149;" horiz-adv-x="704" d="M223 389v-389h-143v730h38l361 -420v404h144v-729h-38z" />
<glyph unicode="&#x14a;" horiz-adv-x="704" d="M488 93l-265 296v-389h-143v730h38l361 -420v404h144v-748q0 -94 -57 -147t-147 -53h-40v137h36q32 0 52.5 17t20.5 46v127z" />
<glyph unicode="&#x14b;" horiz-adv-x="704" d="M488 93l-265 296v-389h-143v730h38l361 -420v404h144v-748q0 -94 -57 -147t-147 -53h-40v137h36q32 0 52.5 17t20.5 46v127z" />
<glyph unicode="&#x14c;" horiz-adv-x="847" d="M424 -10q-89 0 -161 31.5t-116 83.5t-68 118t-24 135.5t24 135.5t68 118t116 83.5t161 31.5t161 -31.5t116 -83.5t68 -118t24 -135.5t-24 -135.5t-68 -118t-116 -83.5t-161 -31.5zM424 138q59 0 105 24.5t70 63.5t35 86t0 94t-35 86t-70 63.5t-105 24.5 q-68 0 -118.5 -32.5t-73 -82t-22.5 -106.5t22.5 -106.5t73 -82t118.5 -32.5zM293 784v133h278v-133h-278z" />
<glyph unicode="&#x14d;" horiz-adv-x="847" d="M424 -10q-89 0 -161 31.5t-116 83.5t-68 118t-24 135.5t24 135.5t68 118t116 83.5t161 31.5t161 -31.5t116 -83.5t68 -118t24 -135.5t-24 -135.5t-68 -118t-116 -83.5t-161 -31.5zM424 138q59 0 105 24.5t70 63.5t35 86t0 94t-35 86t-70 63.5t-105 24.5 q-68 0 -118.5 -32.5t-73 -82t-22.5 -106.5t22.5 -106.5t73 -82t118.5 -32.5zM293 784v133h278v-133h-278z" />
<glyph unicode="&#x14e;" horiz-adv-x="847" d="M424 -10q-89 0 -161 31.5t-116 83.5t-68 118t-24 135.5t24 135.5t68 118t116 83.5t161 31.5t161 -31.5t116 -83.5t68 -118t24 -135.5t-24 -135.5t-68 -118t-116 -83.5t-161 -31.5zM424 138q59 0 105 24.5t70 63.5t35 86t0 94t-35 86t-70 63.5t-105 24.5 q-68 0 -118.5 -32.5t-73 -82t-22.5 -106.5t22.5 -106.5t73 -82t118.5 -32.5zM427 885q49 0 49 42h101q3 -35 -6.5 -62t-25.5 -42t-38.5 -24.5t-41.5 -12.5t-38 -3q-24 0 -48 5.5t-50 19.5t-41 45t-12 74h101q0 -42 50 -42z" />
<glyph unicode="&#x14f;" horiz-adv-x="847" d="M424 -10q-89 0 -161 31.5t-116 83.5t-68 118t-24 135.5t24 135.5t68 118t116 83.5t161 31.5t161 -31.5t116 -83.5t68 -118t24 -135.5t-24 -135.5t-68 -118t-116 -83.5t-161 -31.5zM424 138q59 0 105 24.5t70 63.5t35 86t0 94t-35 86t-70 63.5t-105 24.5 q-68 0 -118.5 -32.5t-73 -82t-22.5 -106.5t22.5 -106.5t73 -82t118.5 -32.5zM427 885q49 0 49 42h101q3 -35 -6.5 -62t-25.5 -42t-38.5 -24.5t-41.5 -12.5t-38 -3q-24 0 -48 5.5t-50 19.5t-41 45t-12 74h101q0 -42 50 -42z" />
<glyph unicode="&#x150;" horiz-adv-x="847" d="M424 -10q-89 0 -161 31.5t-116 83.5t-68 118t-24 135.5t24 135.5t68 118t116 83.5t161 31.5t161 -31.5t116 -83.5t68 -118t24 -135.5t-24 -135.5t-68 -118t-116 -83.5t-161 -31.5zM424 138q59 0 105 24.5t70 63.5t35 86t0 94t-35 86t-70 63.5t-105 24.5 q-68 0 -118.5 -32.5t-73 -82t-22.5 -106.5t22.5 -106.5t73 -82t118.5 -32.5zM294 913h169l-93 -138h-125zM513 913h169l-93 -138h-125z" />
<glyph unicode="&#x151;" horiz-adv-x="847" d="M424 -10q-89 0 -161 31.5t-116 83.5t-68 118t-24 135.5t24 135.5t68 118t116 83.5t161 31.5t161 -31.5t116 -83.5t68 -118t24 -135.5t-24 -135.5t-68 -118t-116 -83.5t-161 -31.5zM424 138q59 0 105 24.5t70 63.5t35 86t0 94t-35 86t-70 63.5t-105 24.5 q-68 0 -118.5 -32.5t-73 -82t-22.5 -106.5t22.5 -106.5t73 -82t118.5 -32.5zM294 913h169l-93 -138h-125zM513 913h169l-93 -138h-125z" />
<glyph unicode="&#x152;" horiz-adv-x="855" d="M399 -5q-87 0 -158 31t-114.5 82t-67 116t-23.5 133t23.5 133t67 116t114.5 82t158 31q25 0 67 -4h322v-143h-202v-142h174v-140h-174v-148h212v-142h-332q-21 -5 -67 -5zM452 124v468q-14 2 -53 2q-96 0 -152 -72.5t-58 -161.5q0 -91 56 -164.5t154 -73.5q37 0 53 2z " />
<glyph unicode="&#x153;" horiz-adv-x="855" d="M399 -5q-87 0 -158 31t-114.5 82t-67 116t-23.5 133t23.5 133t67 116t114.5 82t158 31q25 0 67 -4h322v-143h-202v-142h174v-140h-174v-148h212v-142h-332q-21 -5 -67 -5zM452 124v468q-14 2 -53 2q-96 0 -152 -72.5t-58 -161.5q0 -91 56 -164.5t154 -73.5q37 0 53 2z " />
<glyph unicode="&#x154;" horiz-adv-x="613" d="M598 0h-162l-144 273h-69v-273h-143v715h282q61 0 108 -27t71 -68.5t30 -92t-7 -96.5t-47 -83.5t-85 -52.5zM223 572v-160h126q34 0 53.5 25t19.5 55t-19.5 55t-53.5 25h-126zM271 906h161l-89 -142h-119z" />
<glyph unicode="&#x155;" horiz-adv-x="613" d="M598 0h-162l-144 273h-69v-273h-143v715h282q61 0 108 -27t71 -68.5t30 -92t-7 -96.5t-47 -83.5t-85 -52.5zM223 572v-160h126q34 0 53.5 25t19.5 55t-19.5 55t-53.5 25h-126zM271 906h161l-89 -142h-119z" />
<glyph unicode="&#x156;" horiz-adv-x="613" d="M337 -247h-115l38 190h146zM598 0h-162l-144 273h-69v-273h-143v715h282q61 0 108 -27t71 -68.5t30 -92t-7 -96.5t-47 -83.5t-85 -52.5zM223 572v-160h126q34 0 53.5 25t19.5 55t-19.5 55t-53.5 25h-126z" />
<glyph unicode="&#x157;" horiz-adv-x="613" d="M337 -247h-115l38 190h146zM598 0h-162l-144 273h-69v-273h-143v715h282q61 0 108 -27t71 -68.5t30 -92t-7 -96.5t-47 -83.5t-85 -52.5zM223 572v-160h126q34 0 53.5 25t19.5 55t-19.5 55t-53.5 25h-126z" />
<glyph unicode="&#x158;" horiz-adv-x="613" d="M598 0h-162l-144 273h-69v-273h-143v715h282q61 0 108 -27t71 -68.5t30 -92t-7 -96.5t-47 -83.5t-85 -52.5zM223 572v-160h126q34 0 53.5 25t19.5 55t-19.5 55t-53.5 25h-126zM330 901h152l-143 -140h-92l-141 140h151l36 -47z" />
<glyph unicode="&#x159;" horiz-adv-x="613" d="M598 0h-162l-144 273h-69v-273h-143v715h282q61 0 108 -27t71 -68.5t30 -92t-7 -96.5t-47 -83.5t-85 -52.5zM223 572v-160h126q34 0 53.5 25t19.5 55t-19.5 55t-53.5 25h-126zM330 901h152l-143 -140h-92l-141 140h151l36 -47z" />
<glyph unicode="&#x15a;" horiz-adv-x="529" d="M47 46l18 150q54 -38 110 -49t94 -8q32 2 54.5 23t19.5 49q-2 28 -21 44.5t-53 28.5q-99 36 -155.5 86t-56.5 132q0 90 56.5 152t145.5 66q79 4 178 -30l-18 -138q-81 33 -146 30q-36 -2 -54.5 -25t-16.5 -55q3 -27 23.5 -43.5t56.5 -28.5q207 -76 207 -219 q0 -91 -58.5 -151.5t-157.5 -65.5q-109 -8 -226 52zM249 902h159l-88 -129h-117z" />
<glyph unicode="&#x15b;" horiz-adv-x="529" d="M47 46l18 150q54 -38 110 -49t94 -8q32 2 54.5 23t19.5 49q-2 28 -21 44.5t-53 28.5q-99 36 -155.5 86t-56.5 132q0 90 56.5 152t145.5 66q79 4 178 -30l-18 -138q-81 33 -146 30q-36 -2 -54.5 -25t-16.5 -55q3 -27 23.5 -43.5t56.5 -28.5q207 -76 207 -219 q0 -91 -58.5 -151.5t-157.5 -65.5q-109 -8 -226 52zM249 902h159l-88 -129h-117z" />
<glyph unicode="&#x15c;" horiz-adv-x="529" d="M47 46l18 150q54 -38 110 -49t94 -8q32 2 54.5 23t19.5 49q-2 28 -21 44.5t-53 28.5q-99 36 -155.5 86t-56.5 132q0 90 56.5 152t145.5 66q79 4 178 -30l-18 -138q-81 33 -146 30q-36 -2 -54.5 -25t-16.5 -55q3 -27 23.5 -43.5t56.5 -28.5q207 -76 207 -219 q0 -91 -58.5 -151.5t-157.5 -65.5q-109 -8 -226 52zM449 769h-143l-35 51l-35 -51h-143l134 153h87z" />
<glyph unicode="&#x15d;" horiz-adv-x="529" d="M47 46l18 150q54 -38 110 -49t94 -8q32 2 54.5 23t19.5 49q-2 28 -21 44.5t-53 28.5q-99 36 -155.5 86t-56.5 132q0 90 56.5 152t145.5 66q79 4 178 -30l-18 -138q-81 33 -146 30q-36 -2 -54.5 -25t-16.5 -55q3 -27 23.5 -43.5t56.5 -28.5q207 -76 207 -219 q0 -91 -58.5 -151.5t-157.5 -65.5q-109 -8 -226 52zM449 769h-143l-35 51l-35 -51h-143l134 153h87z" />
<glyph unicode="&#x15e;" horiz-adv-x="529" d="M47 46l18 150q54 -38 110 -49t94 -8q32 2 54.5 23t19.5 49q-2 28 -21 44.5t-53 28.5q-99 36 -155.5 86t-56.5 132q0 90 56.5 152t145.5 66q79 4 178 -30l-18 -138q-81 33 -146 30q-36 -2 -54.5 -25t-16.5 -55q3 -27 23.5 -43.5t56.5 -28.5q207 -76 207 -219 q0 -82 -47.5 -139.5t-130.5 -72.5l-5 -37q68 -5 92 -62t-20 -110q-36 -47 -108 -49t-144 48l51 72q47 -31 87 -23q34 4 34 27q-1 26 -32.5 33.5t-64.5 1.5l19 95q-89 8 -173 51z" />
<glyph unicode="&#x15f;" horiz-adv-x="529" d="M47 46l18 150q54 -38 110 -49t94 -8q32 2 54.5 23t19.5 49q-2 28 -21 44.5t-53 28.5q-99 36 -155.5 86t-56.5 132q0 90 56.5 152t145.5 66q79 4 178 -30l-18 -138q-81 33 -146 30q-36 -2 -54.5 -25t-16.5 -55q3 -27 23.5 -43.5t56.5 -28.5q207 -76 207 -219 q0 -82 -47.5 -139.5t-130.5 -72.5l-5 -37q68 -5 92 -62t-20 -110q-36 -47 -108 -49t-144 48l51 72q47 -31 87 -23q34 4 34 27q-1 26 -32.5 33.5t-64.5 1.5l19 95q-89 8 -173 51z" />
<glyph unicode="&#x160;" horiz-adv-x="529" d="M47 46l18 150q54 -38 110 -49t94 -8q32 2 54.5 23t19.5 49q-2 28 -21 44.5t-53 28.5q-99 36 -155.5 86t-56.5 132q0 90 56.5 152t145.5 66q79 4 178 -30l-18 -138q-81 33 -146 30q-36 -2 -54.5 -25t-16.5 -55q3 -27 23.5 -43.5t56.5 -28.5q207 -76 207 -219 q0 -91 -58.5 -151.5t-157.5 -65.5q-109 -8 -226 52zM309 893h153l-144 -126h-93l-142 126h152l37 -42z" />
<glyph unicode="&#x161;" horiz-adv-x="529" d="M47 46l18 150q54 -38 110 -49t94 -8q32 2 54.5 23t19.5 49q-2 28 -21 44.5t-53 28.5q-99 36 -155.5 86t-56.5 132q0 90 56.5 152t145.5 66q79 4 178 -30l-18 -138q-81 33 -146 30q-36 -2 -54.5 -25t-16.5 -55q3 -27 23.5 -43.5t56.5 -28.5q207 -76 207 -219 q0 -91 -58.5 -151.5t-157.5 -65.5q-109 -8 -226 52zM307 890h153l-144 -126h-93l-142 126h152l37 -42z" />
<glyph unicode="&#x162;" horiz-adv-x="547" d="M341 0h-23l-7 -51q44 -3 71.5 -33t27.5 -69t-27 -78q-36 -51 -106.5 -53t-141.5 51l51 76q44 -32 84 -24q14 2 24 9.5t10 19.5q-1 26 -32.5 34.5t-62.5 1.5l21 116h-32v572h-178v142h499v-142h-178v-572z" />
<glyph unicode="&#x163;" horiz-adv-x="547" d="M341 0h-23l-7 -51q44 -3 71.5 -33t27.5 -69t-27 -78q-36 -51 -106.5 -53t-141.5 51l51 76q44 -32 84 -24q14 2 24 9.5t10 19.5q-1 26 -32.5 34.5t-62.5 1.5l21 116h-32v572h-178v142h499v-142h-178v-572z" />
<glyph unicode="&#x164;" horiz-adv-x="547" d="M341 0h-143v572h-178v142h499v-142h-178v-572zM309 904h152l-143 -140h-92l-141 140h151l36 -47z" />
<glyph unicode="&#x165;" horiz-adv-x="547" d="M341 0h-143v572h-178v142h499v-142h-178v-572zM309 904h152l-143 -140h-92l-141 140h151l36 -47z" />
<glyph unicode="&#x166;" horiz-adv-x="547" d="M99 244v120h99v208h-178v142h499v-142h-178v-208h106v-120h-106v-244h-143v244h-99z" />
<glyph unicode="&#x167;" horiz-adv-x="547" d="M99 244v120h99v208h-178v142h499v-142h-178v-208h106v-120h-106v-244h-143v244h-99z" />
<glyph unicode="&#x168;" d="M593 249q0 -61 -22 -111t-58.5 -80.5t-83 -47t-95 -16.5t-95 16.5t-83 47t-58.5 80.5t-22 111v466h143v-465q0 -43 24 -72t58 -36t68 0t58 36t24 72v465h142v-466zM251 777l-85 37q14 47 43 74.5t68 26.5q20 -1 43 -11t37.5 -18.5t30.5 -5t28 26.5l84 -37 q-14 -48 -43 -74.5t-69 -25.5q-16 1 -34.5 8t-31.5 14.5t-26.5 11.5t-24.5 -2t-20 -25z" />
<glyph unicode="&#x169;" d="M593 249q0 -61 -22 -111t-58.5 -80.5t-83 -47t-95 -16.5t-95 16.5t-83 47t-58.5 80.5t-22 111v466h143v-465q0 -43 24 -72t58 -36t68 0t58 36t24 72v465h142v-466zM251 777l-85 37q14 47 43 74.5t68 26.5q20 -1 43 -11t37.5 -18.5t30.5 -5t28 26.5l84 -37 q-14 -48 -43 -74.5t-69 -25.5q-16 1 -34.5 8t-31.5 14.5t-26.5 11.5t-24.5 -2t-20 -25z" />
<glyph unicode="&#x16a;" d="M593 249q0 -61 -22 -111t-58.5 -80.5t-83 -47t-95 -16.5t-95 16.5t-83 47t-58.5 80.5t-22 111v466h143v-465q0 -43 24 -72t58 -36t68 0t58 36t24 72v465h142v-466zM207 777v117h255v-117h-255z" />
<glyph unicode="&#x16b;" d="M593 249q0 -61 -22 -111t-58.5 -80.5t-83 -47t-95 -16.5t-95 16.5t-83 47t-58.5 80.5t-22 111v466h143v-465q0 -43 24 -72t58 -36t68 0t58 36t24 72v465h142v-466zM207 777v117h255v-117h-255z" />
<glyph unicode="&#x16c;" d="M593 249q0 -61 -22 -111t-58.5 -80.5t-83 -47t-95 -16.5t-95 16.5t-83 47t-58.5 80.5t-22 111v466h143v-465q0 -43 24 -72t58 -36t68 0t58 36t24 72v465h142v-466zM338 855q50 0 50 43h100q3 -35 -7 -62.5t-25.5 -42.5t-38 -25t-41.5 -13t-38 -3q-24 0 -47.5 6t-49.5 20 t-41 45t-11 75h100q0 -43 49 -43z" />
<glyph unicode="&#x16d;" d="M593 249q0 -61 -22 -111t-58.5 -80.5t-83 -47t-95 -16.5t-95 16.5t-83 47t-58.5 80.5t-22 111v466h143v-465q0 -43 24 -72t58 -36t68 0t58 36t24 72v465h142v-466zM338 855q50 0 50 43h100q3 -35 -7 -62.5t-25.5 -42.5t-38 -25t-41.5 -13t-38 -3q-24 0 -47.5 6t-49.5 20 t-41 45t-11 75h100q0 -43 49 -43z" />
<glyph unicode="&#x16e;" d="M593 249q0 -61 -22 -111t-58.5 -80.5t-83 -47t-95 -16.5t-95 16.5t-83 47t-58.5 80.5t-22 111v466h143v-465q0 -43 24 -72t58 -36t68 0t58 36t24 72v465h142v-466zM336 901q-31 0 -44 -21.5t0 -43.5t44 -22t44.5 22t0.5 43.5t-45 21.5zM335 975q51 0 85 -24t42 -58 t-0.5 -68t-42.5 -58t-84 -24t-83.5 24t-41.5 58t0 68t41.5 58t83.5 24z" />
<glyph unicode="&#x16f;" d="M593 249q0 -61 -22 -111t-58.5 -80.5t-83 -47t-95 -16.5t-95 16.5t-83 47t-58.5 80.5t-22 111v466h143v-465q0 -43 24 -72t58 -36t68 0t58 36t24 72v465h142v-466zM336 901q-31 0 -44 -21.5t0 -43.5t44 -22t44.5 22t0.5 43.5t-45 21.5zM335 975q51 0 85 -24t42 -58 t-0.5 -68t-42.5 -58t-84 -24t-83.5 24t-41.5 58t0 68t41.5 58t83.5 24z" />
<glyph unicode="&#x170;" d="M593 249q0 -61 -22 -111t-58.5 -80.5t-83 -47t-95 -16.5t-95 16.5t-83 47t-58.5 80.5t-22 111v466h143v-465q0 -43 24 -72t58 -36t68 0t58 36t24 72v465h142v-466zM208 910h159l-87 -137h-118zM414 910h159l-87 -137h-118z" />
<glyph unicode="&#x171;" d="M593 249q0 -61 -22 -111t-58.5 -80.5t-83 -47t-95 -16.5t-95 16.5t-83 47t-58.5 80.5t-22 111v466h143v-465q0 -43 24 -72t58 -36t68 0t58 36t24 72v465h142v-466zM208 910h159l-87 -137h-118zM414 910h159l-87 -137h-118z" />
<glyph unicode="&#x172;" d="M593 249q0 -118 -78 -188l3 1q-50 -43 -69.5 -98t-2.5 -87q7 -14 31.5 -16t40.5 7l9 -97q-50 -22 -111 -14.5t-85 53.5q-22 51 -10.5 98t47.5 88q-72 -8 -137.5 16.5t-110 86.5t-44.5 150v466h143v-465q0 -43 24 -72t58 -36t68 0t58 36t24 72v465h142v-466z" />
<glyph unicode="&#x173;" d="M593 249q0 -118 -78 -188l3 1q-50 -43 -69.5 -98t-2.5 -87q7 -14 31.5 -16t40.5 7l9 -97q-50 -22 -111 -14.5t-85 53.5q-22 51 -10.5 98t47.5 88q-72 -8 -137.5 16.5t-110 86.5t-44.5 150v466h143v-465q0 -43 24 -72t58 -36t68 0t58 36t24 72v465h142v-466z" />
<glyph unicode="&#x174;" horiz-adv-x="910" d="M299 -15h25l130 320l131 -317h26l292 727h-161l-144 -365l-140 358h-7l-140 -358l-144 365h-161zM665 767h-170l-41 49l-40 -49h-170l158 148h103z" />
<glyph unicode="&#x175;" horiz-adv-x="910" d="M299 -15h25l130 320l131 -317h26l292 727h-161l-144 -365l-140 358h-7l-140 -358l-144 365h-161zM665 767h-170l-41 49l-40 -49h-170l158 148h103z" />
<glyph unicode="&#x176;" horiz-adv-x="649" d="M255 0h142v322l250 393h-175l-146 -246l-146 246h-174l249 -393v-322zM527 776h-164l-40 49l-39 -49h-164l153 148h100z" />
<glyph unicode="&#x177;" horiz-adv-x="649" d="M255 0h142v322l250 393h-175l-146 -246l-146 246h-174l249 -393v-322zM527 776h-164l-40 49l-39 -49h-164l153 148h100z" />
<glyph unicode="&#x178;" horiz-adv-x="649" d="M255 0v322l-249 393h174l146 -246l146 246h175l-250 -393v-322h-142zM119 843q0 35 24 58.5t57 23.5q35 0 58.5 -23.5t23.5 -58.5q0 -34 -23.5 -57.5t-58.5 -23.5q-34 1 -57.5 24t-23.5 57zM366 843q0 35 24 58.5t57 23.5q35 0 58.5 -23.5t23.5 -58.5q0 -34 -23.5 -57 t-58.5 -24q-33 0 -57 23.5t-24 57.5z" />
<glyph unicode="&#x179;" horiz-adv-x="535" d="M501 0h-479q29 64 81.5 181.5t95.5 213.5t81 181h-220v139h433q-86 -191 -258 -571h266v-144zM257 916h166l-92 -147h-122z" />
<glyph unicode="&#x17a;" horiz-adv-x="535" d="M501 0h-479q29 64 81.5 181.5t95.5 213.5t81 181h-220v139h433q-86 -191 -258 -571h266v-144zM257 916h166l-92 -147h-122z" />
<glyph unicode="&#x17b;" horiz-adv-x="535" d="M501 0h-479q29 64 81.5 181.5t95.5 213.5t81 181h-220v139h433q-86 -191 -258 -571h266v-144zM282 928q41 0 64 -24t22.5 -53t-23.5 -53t-63 -24t-63 24t-23 53t23 53t63 24z" />
<glyph unicode="&#x17c;" horiz-adv-x="535" d="M501 0h-479q29 64 81.5 181.5t95.5 213.5t81 181h-220v139h433q-86 -191 -258 -571h266v-144zM282 928q41 0 64 -24t22.5 -53t-23.5 -53t-63 -24t-63 24t-23 53t23 53t63 24z" />
<glyph unicode="&#x17d;" horiz-adv-x="535" d="M501 0h-479q29 64 81.5 181.5t95.5 213.5t81 181h-220v139h433q-86 -191 -258 -571h266v-144zM323 892h155l-146 -128h-94l-143 128h153l37 -43z" />
<glyph unicode="&#x17e;" horiz-adv-x="535" d="M501 0h-479q29 64 81.5 181.5t95.5 213.5t81 181h-220v139h433q-86 -191 -258 -571h266v-144zM323 892h155l-146 -128h-94l-143 128h153l37 -43z" />
<glyph unicode="&#x17f;" horiz-adv-x="475" d="M437 572h-214v-572h-143v715h357v-143z" />
<glyph unicode="&#x2c6;" horiz-adv-x="438" d="M405 587h-152l-37 47l-36 -47h-151l141 140h92z" />
<glyph unicode="&#x2c7;" horiz-adv-x="447" d="M253 717h152l-143 -140h-92l-141 140h151l36 -47z" />
<glyph unicode="&#x2d8;" horiz-adv-x="366" d="M185 680q46 0 46 42h94q3 -43 -10.5 -73t-37.5 -44t-46.5 -19.5t-45.5 -5.5q-17 0 -34.5 3t-38.5 12.5t-36 24t-24.5 41.5t-6.5 61h94q0 -42 46 -42z" />
<glyph unicode="&#x2d9;" horiz-adv-x="244" d="M110 724q52 0 72.5 -40t-0.5 -80.5t-72 -40.5q-38 0 -60 25t-22 55.5t22 55.5t60 25z" />
<glyph unicode="&#x2da;" horiz-adv-x="358" d="M182 637q-33 0 -46.5 -26t0 -52t46.5 -26t47 26t0.5 52t-47.5 26zM181 724q39 0 69 -15t45.5 -39.5t22.5 -54t-0.5 -59t-23 -54t-45.5 -39.5t-68 -15q-66 0 -103 43t-37 95t37 95t103 43z" />
<glyph unicode="&#x2db;" horiz-adv-x="318" d="M124 13h99q-85 -105 -63 -148q10 -14 30.5 -13t39.5 11l9 -97q-50 -22 -111 -14.5t-85 53.5q-26 49 2 106t79 102z" />
<glyph unicode="&#x2dc;" horiz-adv-x="443" d="M135 586l-87 38q15 50 44 78t70 27q20 -1 44 -11.5t38.5 -19.5t31 -5t28.5 28l86 -39q-14 -50 -44 -77.5t-71 -26.5q-20 1 -43.5 11.5t-38.5 19.5t-31 5t-27 -28z" />
<glyph unicode="&#x2dd;" horiz-adv-x="529" d="M96 719h169l-93 -138h-125zM315 719h169l-93 -138h-125z" />
<glyph unicode="&#x2013;" horiz-adv-x="538" d="M38 275v133h452v-133h-452z" />
<glyph unicode="&#x2014;" horiz-adv-x="618" d="M38 275v133h541v-133h-541z" />
<glyph unicode="&#x2018;" horiz-adv-x="224" d="M159 502h-144l76 213h109z" />
<glyph unicode="&#x2019;" horiz-adv-x="209" d="M56 716h144l-76 -213h-109z" />
<glyph unicode="&#x201a;" horiz-adv-x="240" d="M57 110h148l-78 -226h-112z" />
<glyph unicode="&#x201c;" horiz-adv-x="394" d="M153 502h-138l76 213h109zM337 502h-135l67 213h109z" />
<glyph unicode="&#x201d;" horiz-adv-x="394" d="M236 714h138l-76 -213h-109zM52 714h135l-67 -213h-109z" />
<glyph unicode="&#x201e;" horiz-adv-x="455" d="M57 110h148l-78 -226h-112zM279 110h148l-78 -226h-112z" />
<glyph unicode="&#x2022;" horiz-adv-x="293" d="M142 467q48 0 80.5 -25.5t39.5 -61.5t-1 -72t-40 -61.5t-79 -25.5t-79 25.5t-39 61.5t0 72t39 61.5t79 25.5z" />
<glyph unicode="&#x2026;" horiz-adv-x="732" d="M110 154q52 0 72.5 -40t-0.5 -80.5t-72 -40.5q-38 0 -60 25t-22 55.5t22 55.5t60 25zM354 154q52 0 72.5 -40t-0.5 -80.5t-72 -40.5q-38 0 -60 25t-22 55.5t22 55.5t60 25zM598 154q52 0 72.5 -40t-0.5 -80.5t-72 -40.5q-38 0 -60 25t-22 55.5t22 55.5t60 25z" />
<glyph unicode="&#x20ac;" horiz-adv-x="511" d="M-5 241v91h62q-1 15 -1 46h-61v91h72q31 112 120.5 183.5t227.5 71.5q31 0 55 -4l-8 -144q-28 4 -47 4q-132 0 -187 -111h133v-91h-156q-1 -21 2 -46h154v-91h-124q58 -97 181 -97q28 0 56 5l9 -146q-37 -5 -65 -5q-134 0 -223 68t-123 175h-77z" />
<glyph unicode="&#x25fc;" horiz-adv-x="715" d="M0 715h715v-715h-715v715z" />
</font>
</defs>
</svg>
