<?xml version="1.0" encoding="UTF-8" standalone="no"?>
<svg
   xmlns:dc="http://purl.org/dc/elements/1.1/"
   xmlns:cc="http://creativecommons.org/ns#"
   xmlns:rdf="http://www.w3.org/1999/02/22-rdf-syntax-ns#"
   xmlns:svg="http://www.w3.org/2000/svg"
   xmlns="http://www.w3.org/2000/svg"
   width="97.342438mm"
   height="90.825279mm"
   viewBox="0 0 344.91415 321.82185"
   id="svg2"
   version="1.1">
  <defs
     id="defs4" />
  <metadata
     id="metadata7">
    <rdf:RDF>
      <cc:Work
         rdf:about="">
        <dc:format>image/svg+xml</dc:format>
        <dc:type
           rdf:resource="http://purl.org/dc/dcmitype/StillImage" />
        <dc:title></dc:title>
      </cc:Work>
    </rdf:RDF>
  </metadata>
  <g
     style="fill:#000000"
     id="layer1"
     transform="translate(-94.128197,-83.06707)">
    <rect
       style="fill:#000000;stroke:none"
       id="rect4211"
       width="13.655738"
       height="243.06413"
       x="94.128197"
       y="83.06707" />
    <rect
       y="83.06707"
       x="114.40591"
       height="243.06413"
       width="13.655738"
       id="rect4222"
       style="fill:#000000;stroke:none" />
    <rect
       style="fill:#000000;stroke:none"
       id="rect4224"
       width="13.655738"
       height="207.44441"
       x="148.20213"
       y="83.06707" />
    <rect
       y="83.06707"
       x="148.20213"
       height="207.44441"
       width="13.655738"
       id="rect4226"
       style="fill:#000000;stroke:none" />
    <rect
       style="fill:#000000;stroke:none"
       id="rect4232"
       width="13.655738"
       height="207.44441"
       x="175.23911"
       y="83.06707" />
    <rect
       y="83.06707"
       x="202.27609"
       height="207.44441"
       width="13.655738"
       id="rect4234"
       style="fill:#000000;stroke:none" />
    <rect
       style="fill:#000000;stroke:none"
       id="rect4236"
       width="13.655738"
       height="207.44441"
       x="229.31313"
       y="83.06707" />
    <rect
       y="83.06707"
       x="256.3501"
       height="207.44441"
       width="13.655738"
       id="rect4238"
       style="fill:#000000;stroke:none" />
    <rect
       style="fill:#000000;stroke:none"
       id="rect4240"
       width="13.655738"
       height="207.44441"
       x="283.38708"
       y="83.06707" />
    <rect
       y="83.06707"
       x="310.42407"
       height="207.44441"
       width="13.655738"
       id="rect4242"
       style="fill:#000000;stroke:none" />
    <rect
       style="fill:#000000;stroke:none"
       id="rect4244"
       width="13.655738"
       height="207.44441"
       x="337.46103"
       y="83.06707" />
    <rect
       y="83.06707"
       x="371.25726"
       height="207.44441"
       width="13.655738"
       id="rect4246"
       style="fill:#000000;stroke:none" />
    <rect
       style="fill:#000000;stroke:none"
       id="rect4248"
       width="13.655738"
       height="207.44441"
       x="398.29425"
       y="83.06707" />
    <path
       id="rect4252"
       style="fill:#000000;stroke:none"
       d="m 388.28599,243.91677 10.0539,9.63543 -164.19088,151.33672 -10.0539,-9.63543 z m 50.75635,36.77904 a 81.507691,76.501453 0 0 1 -81.50767,76.50147 81.507691,76.501453 0 0 1 -81.50771,-76.50147 81.507691,76.501453 0 0 1 81.50771,-76.50144 81.507691,76.501453 0 0 1 81.50767,76.50144 z" />
    <text
       xml:space="preserve"
       style="font-style:normal;font-weight:normal;font-size:63.05064392px;line-height:125%;font-family:sans-serif;letter-spacing:0px;word-spacing:0px;fill:#000000;fill-opacity:1;stroke:none;stroke-width:1px;stroke-linecap:butt;stroke-linejoin:miter;stroke-opacity:1"
       x="106.52023"
       y="416.61218"
       id="text4257"
       transform="scale(1.2323982,0.81142604)"><tspan
         style="fill:#000000"
         id="tspan4259"
         x="106.52023"
         y="416.61218">101</tspan></text>
    <rect
       y="83.06707"
       x="425.33124"
       height="243.06413"
       width="13.655738"
       id="rect4261"
       style="fill:#000000;stroke:none" />
  </g>
</svg>
